<?xml version="1.0" standalone="no"?>
<!DOCTYPE svg PUBLIC "-//W3C//DTD SVG 1.1//EN" "http://www.w3.org/Graphics/SVG/1.1/DTD/svg11.dtd" >
<svg xmlns="http://www.w3.org/2000/svg">
<metadata></metadata>
<defs>
<font id="sousesregular" horiz-adv-x="1239" >
<font-face units-per-em="2048" ascent="1638" descent="-410" />
<missing-glyph horiz-adv-x="532" />
<glyph horiz-adv-x="2048" />
<glyph horiz-adv-x="2048" />
<glyph unicode="&#xd;" horiz-adv-x="2048" />
<glyph unicode=" "  horiz-adv-x="532" />
<glyph unicode="&#x09;" horiz-adv-x="532" />
<glyph unicode="&#xa0;" horiz-adv-x="532" />
<glyph unicode="!" horiz-adv-x="747" d="M18 164q12 79 93 142t178 63t154.5 -63t45.5 -142q-14 -79 -94.5 -142t-177.5 -63t-155 63t-44 142zM127 492l156 1003l526 -41l-297 -983z" />
<glyph unicode="&#x22;" horiz-adv-x="1054" d="M193 860l18 574h420l-152 -574h-286zM674 860l49 574h420l-172 -574h-297z" />
<glyph unicode="#" horiz-adv-x="1628" d="M-41 358l125 297h215l88 154h-215l104 297h308l172 338h409l-182 -338h133l193 338l411 10l-207 -358h205l-133 -287h-194l-78 -154h246l-166 -297l-269 -10l-159 -328l-433 -20l185 358h-123l-184 -348l-433 -20l185 358zM690 614h174l125 236h-174z" />
<glyph unicode="$" horiz-adv-x="1249" d="M-88 205l281 307q8 -7 22 -19t55 -42t80 -52.5t89.5 -41.5t90.5 -19q76 0 119 26.5t49 55.5q5 28 -19 51t-66.5 39t-97 36t-110.5 43t-107.5 59t-88.5 84t-52 119t1 163q25 136 138 253.5t294 170.5l33 180l385 -21l-25 -137q59 -13 116.5 -37.5t97 -50t71 -49 t46.5 -38.5l15 -15l-262 -318q-6 6 -16 15.5t-41.5 34.5t-63 44t-76 34.5t-84.5 15.5q-58 0 -95 -24.5t-42 -57.5q-4 -24 14.5 -45t53.5 -36.5t81.5 -33.5t97 -36t100.5 -44.5t93 -59t73.5 -79t41.5 -104.5t-2 -136q-26 -147 -151.5 -269.5t-325.5 -176.5l-29 -168l-395 -31 l31 174q-74 13 -145 42t-118.5 61.5t-84.5 63t-54 50.5z" />
<glyph unicode="%" horiz-adv-x="1974" d="M131 1096q13 74 54.5 148t101 135t141 99t166.5 38q90 0 162.5 -35.5t116.5 -94t61 -135t2 -157.5q-27 -163 -160.5 -270t-322.5 -107q-174 0 -263 107.5t-59 271.5zM184 0l1246 1546l366 -184l-1151 -1362h-461zM469 1096q-8 -47 6.5 -80t44.5 -33q25 0 49 31t33 82 q18 112 -51 112q-24 0 -49.5 -33.5t-32.5 -78.5zM1083 338q12 74 53.5 148t101.5 135t141.5 99t166.5 38q119 0 205.5 -60.5t121.5 -156.5t13 -205q-25 -163 -158.5 -270t-322.5 -107q-174 0 -263 107.5t-59 271.5zM1421 338q-9 -46 6 -79.5t46 -33.5q24 0 47.5 30.5 t33.5 82.5q8 50 -4.5 81.5t-48.5 31.5q-24 0 -48.5 -34t-31.5 -79z" />
<glyph unicode="&#x26;" horiz-adv-x="1454" d="M-35 389q12 69 55.5 134.5t96.5 109.5t104.5 78.5t86.5 50.5l34 16l2 21q-2 2 -5.5 6t-14.5 18.5t-19 30t-18.5 41.5t-14.5 53t-6.5 63.5t6.5 73.5q12 69 62 138.5t124.5 125.5t178.5 91t215 35q125 0 223 -35t153 -91.5t78.5 -125t10.5 -138.5q-10 -54 -34.5 -104 t-56 -85.5t-67.5 -66.5t-70.5 -51t-62 -34.5t-44.5 -20.5l-17 -6l-4 -21l112 -184l209 143l158 -266l-219 -143l172 -246l-521 -41l-47 82q-6 -3 -18 -8.5t-51.5 -20t-81.5 -25t-105.5 -19.5t-126.5 -9q-267 0 -389 119t-88 311zM403 430q-9 -47 26 -85t95 -38 q27 0 54.5 10.5t41.5 20.5l13 10l-127 205l-10 -5t-22 -14.5t-29 -24.5t-25.5 -34.5t-16.5 -44.5zM702 1085q-6 -36 13.5 -72t42.5 -53l22 -18l10 5q11 5 28.5 16.5t35 27t33 40.5t20.5 54q7 44 -18.5 73.5t-65.5 29.5t-77 -29.5t-44 -73.5z" />
<glyph unicode="'" horiz-adv-x="583" d="M213 860l18 574h420l-151 -574h-287z" />
<glyph unicode="(" horiz-adv-x="839" d="M67.5 410.5q1.5 96.5 18.5 193.5q23 132 73 262t111.5 233.5t130.5 198t133.5 162.5t116.5 118.5t83 75.5l32 25l248 -225q-7 -7 -20 -21t-50.5 -60t-73.5 -96t-83 -127.5t-84.5 -157.5t-72 -183t-52.5 -205q-24 -145 -20 -266.5t27.5 -218.5t50 -164t48.5 -103l21 -36 l-347 -215q-5 5 -13 14.5t-33 42.5t-48.5 69t-53.5 93.5t-54.5 117t-46 138t-32.5 158.5t-9.5 176.5z" />
<glyph unicode=")" horiz-adv-x="839" d="M-133 -184q13 13 35 36.5t81 102t109 164.5t102 218t76 267q24 151 19.5 281t-29.5 235t-53.5 179.5t-50.5 114.5l-23 40l326 225q5 -5 14.5 -15.5t36.5 -46t53 -74t59.5 -100t60 -125.5t50.5 -148.5t36.5 -170t11.5 -188.5t-19 -207q-22 -123 -68 -245t-103 -218.5 t-121 -184.5t-123 -151t-107.5 -110t-77.5 -71l-29 -23z" />
<glyph unicode="*" horiz-adv-x="1085" d="M156 1004l94 307l246 -62l30 236l305 -21l-40 -225l249 82l43 -277l-206 -71l122 -174l-294 -164l-125 215l-205 -225l-207 163l166 185z" />
<glyph unicode="+" horiz-adv-x="1259" d="M53 543l62 348l385 -4l71 393l375 -20l-78 -375l381 -4l-86 -379l-372 12l-74 -350h-348l65 364z" />
<glyph unicode="," horiz-adv-x="593" d="M-10 184q14 79 94.5 142t177.5 63q102 0 156 -72.5t33 -193.5q-26 -146 -132.5 -253.5t-246.5 -156.5l-76 156q72 24 115 68.5t-2 60.5q-3 1 -7 2q-62 16 -93 63t-19 121z" />
<glyph unicode="-" horiz-adv-x="1003" d="M66 492l65 368l858 -10l-88 -379z" />
<glyph unicode="." horiz-adv-x="593" d="M-10 184q14 79 94.5 142t177.5 63t155 -63t44 -142q-12 -78 -92.5 -141t-178.5 -63q-97 0 -154.5 62.5t-45.5 141.5z" />
<glyph unicode="/" horiz-adv-x="1310" d="M-113 -184l1207 1863l356 -184l-1073 -1679h-490z" />
<glyph unicode="0" horiz-adv-x="1413" d="M55.5 539q0.5 77 14.5 157q28 155 98 295t171 248t237.5 172t285.5 64q92 0 170.5 -22.5t137 -63t103.5 -96.5t72 -122.5t41 -141.5t13 -153.5t-15 -158.5q-20 -112 -66.5 -220.5t-119 -205.5t-162 -171t-204 -117.5t-236.5 -43.5q-94 0 -174 21.5t-138.5 60t-103.5 92.5 t-72 118t-40 137.5t-12.5 150.5zM518 565q0 -63 12.5 -117.5t46.5 -87t85 -32.5q58 0 114.5 62t94 149t53.5 178q12 69 13 134.5t-10 124.5t-44 94.5t-84 35.5q-63 0 -120 -63t-94 -153.5t-55 -193.5q-12 -68 -12 -131z" />
<glyph unicode="1" horiz-adv-x="1054" d="M-10 0l59 348h266l134 635l-291 -82l-76 266l534 308l363 -41l-213 -1096l205 10l-39 -348h-942z" />
<glyph unicode="2" horiz-adv-x="1228" d="M-20 0l47 389q15 8 40.5 22.5t99 59.5t141.5 89.5t152 106.5t146.5 117t109 114.5t54.5 105.5t-15 74t-69 28q-73 0 -171 -49t-160 -97l-62 -49l-166 277q14 12 38.5 31t100 68.5t150.5 87.5t179 69t196 31q272 0 384 -103.5t76 -306.5q-15 -84 -56.5 -166.5 t-96.5 -147.5t-118 -124t-123 -101.5t-109 -74t-79 -47.5l-30 -15l-4 -20l518 20l-98 -389h-1075z" />
<glyph unicode="3" horiz-adv-x="1146" d="M-111 184l242 277q6 -6 16 -15.5t42 -34.5t64.5 -44t79.5 -34.5t91 -15.5q88 0 142.5 38.5t64.5 95.5q11 63 -29.5 98t-130.5 35h-154l66 317q6 0 15.5 1t38 5.5t55 11t59 18t57 25.5t43.5 35.5t23 46.5q7 35 -19 58.5t-90 23.5q-59 0 -130.5 -30.5t-113.5 -61.5l-42 -30 l-136 266q11 8 31.5 22t82.5 49.5t124 62.5t147 49t160 22q126 0 221 -30t147 -81.5t73 -117t8 -140.5q-11 -63 -43 -118.5t-69 -90t-72.5 -60t-58.5 -35.5l-24 -11l-4 -21q11 -3 29.5 -10t64 -35t78 -65t52.5 -103.5t6 -146.5q-22 -124 -111 -225.5t-242 -163.5t-342 -62 q-86 0 -170.5 23t-143.5 56t-105.5 66.5t-69.5 56.5z" />
<glyph unicode="4" horiz-adv-x="1228" d="M8 635l776 799h410l-121 -799h144l-46 -369l-159 21l-49 -287h-410l37 287l-567 20zM459 635h205l32 248h-20l-213 -228z" />
<glyph unicode="5" horiz-adv-x="1167" d="M-98 143l229 318q7 -5 20 -14t53.5 -32t82.5 -40.5t103 -32t118 -14.5q71 0 113.5 36t50.5 87q6 32 -5.5 60t-45 53.5t-94 39.5t-154 19.5t-223.5 -7.5l143 818h901l-45 -369l-508 20l-25 -143q24 1 64 0t138 -24t168 -67.5t116 -149t20 -250.5q-26 -151 -121.5 -263 t-240 -170.5t-318.5 -58.5q-86 0 -173 19t-150.5 46t-114 54t-76.5 46z" />
<glyph unicode="6" horiz-adv-x="1249" d="M43 330.5q-27 117.5 0 263.5q70 406 354.5 628.5t802.5 252.5v-349q-17 0 -47 -1t-112.5 -11t-153.5 -27.5t-149.5 -55t-121.5 -89.5l-4 -20q82 35 164.5 44.5t153.5 -7t131 -56.5t97.5 -104t52.5 -148.5t-5 -189.5q-24 -137 -118.5 -252t-238 -182.5t-304.5 -67.5 q-130 0 -235 44.5t-172.5 127t-94.5 200zM469 461q-12 -68 21.5 -111t95.5 -43t110 43t60 111t-21.5 110.5t-95.5 42.5t-110 -42.5t-60 -110.5z" />
<glyph unicode="7" horiz-adv-x="1105" d="M20 123l654 911l2 21l-555 -11l49 390l1049 20l-50 -389l-788 -1106z" />
<glyph unicode="8" horiz-adv-x="1310" d="M10 410q10 56 33.5 106t53 86t63.5 66.5t66 50.5t58 33.5t42 19.5l16 6l2 21q-2 1 -6.5 2.5t-17.5 8t-24 14.5t-28 22t-28.5 30.5t-25 40t-18 50.5t-7.5 62t6 75q17 102 105.5 187.5t224 134.5t286.5 49q142 0 261 -49t182 -134.5t46 -185.5q-9 -50 -28 -93.5t-42.5 -74 t-50 -55.5t-51 -40t-44.5 -25.5t-32 -14.5l-12 -4l-2 -21q10 -4 26.5 -11.5t57 -38.5t69 -69t45.5 -105t3 -144q-25 -139 -130 -248t-254.5 -166t-313.5 -57q-165 0 -294 57t-195.5 166t-41.5 248zM461.5 385.5q3.5 -27.5 14 -49t43 -35.5t83.5 -14t88 13t57 37t30.5 48 t15.5 55q12 59 -20.5 96t-119.5 37q-162 0 -188 -133q-7 -27 -3.5 -54.5zM592 1034q-9 -46 23 -79t90 -33q131 0 153 112q8 51 -18 82t-97 31q-132 0 -151 -113z" />
<glyph unicode="9" horiz-adv-x="1249" d="M88 973q18 102 78.5 194.5t147.5 160t201 107.5t235 40q130 0 235 -45t173 -126t94 -201t1 -263q-72 -407 -355.5 -629t-803.5 -252v348q17 0 47 1t112.5 11.5t154 27.5t150 55t122.5 90l4 20q-99 -42 -197 -47.5t-178.5 27.5t-138.5 95.5t-81 163t-1 222.5zM539 973 q-12 -68 21 -111t95 -43t110 43t60 111t-21 110.5t-95 42.5t-110 -42.5t-60 -110.5z" />
<glyph unicode=":" horiz-adv-x="593" d="M-10 184q14 79 94.5 142t177.5 63t155 -63t44 -142q-12 -78 -92.5 -141t-178.5 -63q-97 0 -154.5 62.5t-45.5 141.5zM111 860q12 79 92.5 142t177.5 63t155 -63t46 -142q-14 -79 -95 -142t-178 -63t-154.5 63t-43.5 142z" />
<glyph unicode=";" horiz-adv-x="593" d="M-10 184q14 79 94.5 142t177.5 63q102 0 156 -72.5t33 -193.5q-26 -146 -132.5 -253.5t-246.5 -156.5l-76 156q72 24 115 68.5t-2 60.5q-3 1 -7 2q-62 16 -93 63t-19 121zM111 860q12 79 92.5 142t177.5 63t155 -63t46 -142q-14 -79 -95 -142t-178 -63t-154.5 63 t-43.5 142z" />
<glyph unicode="&#x3c;" horiz-adv-x="1187" d="M10 410l101 338l1017 317l41 -348l-581 -164l-4 -21l497 -204l-204 -348z" />
<glyph unicode="=" horiz-adv-x="1187" d="M25 266l59 328h1003l-43 -358zM129 737l43 359l1018 -31l-57 -328h-1004z" />
<glyph unicode="&#x3e;" horiz-adv-x="1187" d="M16 328l568 204l4 21l-525 164l164 348l908 -317l-19 -338l-1018 -430z" />
<glyph unicode="?" horiz-adv-x="1146" d="M102 1167q5 6 15.5 17.5t44 43.5t70 61t92.5 64.5t112.5 61t129 43t143.5 17.5q127 0 227 -32.5t160 -88t84.5 -130.5t9.5 -159q-14 -79 -44 -140.5t-68 -100.5t-81 -70t-86.5 -56.5t-81 -52t-66.5 -65.5t-42 -88l-404 40q19 77 56.5 137.5t79.5 94.5t89 65t85 52.5 t66.5 53t35.5 69.5q7 42 -30 72t-74 30q-40 0 -83 -17t-76 -41t-60 -48t-42 -41l-14 -17zM225 184q14 79 95 142t178 63t154.5 -63t43.5 -142q-12 -79 -92.5 -141.5t-177.5 -62.5t-155 62.5t-46 141.5z" />
<glyph unicode="@" horiz-adv-x="1945" d="M50.5 553.5q-4.5 80.5 12.5 163.5q22 121 82.5 240.5t160 227.5t224.5 190.5t287.5 131.5t337.5 49q220 0 390 -62.5t268 -169.5t136.5 -247t10.5 -299q-14 -76 -61.5 -155t-122 -149t-185.5 -114.5t-235 -44.5q-64 0 -119 20.5t-79 40.5l-23 21h-11q-5 -3 -13.5 -8.5 t-37 -20t-58 -25t-74 -19.5t-87.5 -9q-63 0 -112 20.5t-79 56t-49 83t-20.5 100.5t6.5 109q28 155 137 262t246 107q45 0 85.5 -18t58.5 -36l18 -18h10l39 51l254 -10l-76 -440q29 -11 49 -11q55 0 104 58t66 149q14 82 -9.5 161t-81 144.5t-162.5 105.5t-242 40 q-138 0 -256 -41t-200.5 -112t-135.5 -162.5t-72 -196.5q-45 -255 98.5 -404t440.5 -149q87 0 189 15t161 31l59 15l11 -284q-10 -3 -28 -9t-75.5 -20.5t-117 -25.5t-146.5 -20t-170 -9q-108 0 -205 19t-176 53.5t-146.5 83.5t-116 109t-85.5 129.5t-53.5 145.5t-21 156.5z M918 674q-22 -113 61 -113q18 0 37 7.5t29 15.5l10 8l32 184q-24 31 -65 31q-34 0 -64 -35t-40 -98z" />
<glyph unicode="A" horiz-adv-x="1525" d="M-143 0l815 1434l538 41l277 -1452l-492 -64l-57 369h-420l-170 -328h-491zM664 635h235l-47 307h-21z" />
<glyph unicode="B" horiz-adv-x="1402" d="M20 0l252 1434q316 20 568 20q86 0 164 -12t152 -41.5t124 -75t73 -117.5q14 -42 13 -92q0 -34 -6 -72q-9 -52 -38 -97t-64 -73t-69 -48.5t-57 -29.5l-22 -8l-2 -20l9 -3q9 -3 26.5 -9.5t38 -17t43.5 -25.5t44.5 -35.5t40.5 -47t30.5 -59.5t15.5 -73q1 -13 1 -28 q0 -28 -5 -60q-20 -112 -88.5 -196t-173 -134.5t-232.5 -75t-278 -24.5q-118 0 -258 5t-221 10zM498 336h143q126 0 191 29t77 96q2 12 2 23q0 49 -44 72q-54 28 -181 28h-143zM600 911h143q89 0 131 22t52 81q2 14 2 25q0 39 -26 55q-34 22 -122 22h-143z" />
<glyph unicode="C" horiz-adv-x="1310" d="M68 480v31q0 102 20 226q129 738 836 738q87 0 165 -20.5t140 -58t103 -70.5t85 -77l-284 -274q-5 5 -13.5 13t-36.5 29t-56.5 37t-69 29t-78.5 13q-65 0 -116.5 -22.5t-84.5 -56.5t-58.5 -90t-40 -107.5t-28.5 -123.5q-8 -44 -9 -88v-9q0 -41 8 -86q10 -50 31 -87.5 t63 -62.5t101 -25q52 0 106 14.5t94.5 35.5t73.5 42.5t51 35.5l17 15l193 -297q-10 -9 -29 -24t-79.5 -54t-123 -68.5t-153.5 -54t-178 -24.5q-115 0 -209.5 18t-175.5 56.5t-135.5 99.5t-89.5 147t-39 200z" />
<glyph unicode="D" horiz-adv-x="1443" d="M20 0l252 1434h584q338 0 482 -196q101 -138 101 -349q0 -90 -18 -193q-58 -337 -283.5 -537t-541.5 -200q-248 0 -576 41zM504 307h123q65 0 117.5 21.5t87.5 56t61 86.5t41.5 105t26.5 120q6 31 9.5 60.5t4.5 69.5v14q0 33 -4 61q-5 34 -19 69t-37 59.5t-61.5 40 t-89.5 15.5h-102z" />
<glyph unicode="E" d="M20 0l273 1434h1014l-97 -369h-553l-28 -164h491l-43 -358h-512l-30 -174l600 -21l-80 -348h-1035z" />
<glyph unicode="F" horiz-adv-x="1259" d="M20 0l293 1434h1055l-96 -369h-594l-33 -184l490 -21l-52 -348l-501 10l-95 -542z" />
<glyph unicode="G" horiz-adv-x="1433" d="M80 696q16 91 38.5 169t59 159.5t83.5 146t114.5 123t150 97.5t192 61.5t238.5 22.5q88 0 169.5 -21t135 -51.5t94 -60.5t59.5 -51l18 -21l-308 -287q-3 5 -9.5 12.5t-30.5 27t-51 34.5t-71.5 27t-93.5 12q-58 0 -102.5 -17t-86.5 -59.5t-74.5 -123.5t-53.5 -200 q-12 -67 -12 -122q0 -94 35 -152q54 -94 180 -94q69 0 157 30l25 134l-244 10l94 358l627 -41l-125 -706q-129 -70 -285.5 -112t-293.5 -42q-354 0 -521 196q-124 144 -124 369q0 81 16 172z" />
<glyph unicode="H" horiz-adv-x="1617" d="M61 0l211 1434h471l-69 -512l411 10l89 502h471l-283 -1434l-455 -20l99 563l-392 -11l-82 -532h-471z" />
<glyph unicode="I" horiz-adv-x="993" d="M-31 0l39 348h225l134 748l-234 10l62 348l897 -20l-68 -328l-231 -31l-109 -727h225l-59 -348h-881z" />
<glyph unicode="J" horiz-adv-x="1044" d="M-123 113l262 338q12 -12 31.5 -29t69.5 -45.5t86 -28.5q55 0 100 46.5t59 158.5l111 860l500 41l-160 -901q-17 -101 -43 -180.5t-77 -160t-121.5 -133.5t-181.5 -86.5t-253 -33.5q-64 0 -126.5 16t-107 38.5t-79.5 45t-53 38.5z" />
<glyph unicode="K" horiz-adv-x="1433" d="M41 0l235 1454l443 -41l-80 -450h20l543 522l279 -287l-525 -471l457 -727h-584l-256 471h-20l-82 -471h-430z" />
<glyph unicode="L" horiz-adv-x="1198" d="M23 -41l260 1475h471l-213 -1086l557 21l-23 -369z" />
<glyph unicode="M" horiz-adv-x="2007" d="M-109 72l562 1392l424 -30l143 -697h20l416 676h410l59 -1413l-491 10l16 666h-20l-300 -533l-413 -20l-127 553h-21l-247 -707z" />
<glyph unicode="N" horiz-adv-x="1576" d="M61 0l211 1434h430l299 -686h21l137 727l445 -41l-287 -1393l-436 -41l-279 635h-20l-90 -635h-431z" />
<glyph unicode="O" horiz-adv-x="1515" d="M75 483q-3 34 -3 70q0 87 16 184q61 346 273.5 542t551.5 196q105 0 192.5 -24t150 -66t109.5 -100.5t74 -126.5t39 -146q11 -67 12 -135q0 -11 -1 -21q-2 -78 -16 -160q-20 -115 -59.5 -218.5t-108.5 -200t-159.5 -166t-218.5 -111t-280 -41.5q-124 0 -227 37.5 t-174 106.5t-116.5 165.5t-54.5 214.5zM549 737q-17 -96 -18 -170q0 -239 182 -239q62 0 110.5 22.5t78.5 55.5t53 86t34.5 97.5t22.5 106.5q10 58 14 110q2 21 2 42q0 32 -4 67q-6 57 -23.5 97.5t-56 67t-94.5 26.5q-62 0 -111 -22.5t-79 -56t-53.5 -86.5t-35 -98 t-22.5 -106z" />
<glyph unicode="P" horiz-adv-x="1413" d="M20 0l273 1434q131 5 220.5 9.5t110.5 6t51 3t52 1.5h102q100 0 195 -19.5t178 -61t141.5 -100.5t84.5 -145q15 -51 15 -106q0 -39 -7 -80q-46 -258 -243 -405.5t-552 -147.5h-113l-75 -430zM594 758h113q99 0 158 21t82.5 54t33.5 89q2 13 2 26q1 57 -49 93 q-60 44 -170 44h-113z" />
<glyph unicode="Q" horiz-adv-x="1484" d="M68 514q-1 24 -1 48q0 66 13 134q23 126 67.5 238.5t116.5 212.5t164 172t216.5 114t268.5 42q227 0 369 -91t190 -256q27 -90 27 -199q0 -89 -18 -192q-35 -197 -148.5 -381.5t-275.5 -294.5q25 0 49.5 8.5t41 20.5t29.5 24t19 20l6 9l199 -266q-7 -7 -20 -18t-56 -39 t-89 -50t-115 -39.5t-138 -17.5q-275 0 -356 246q-107 5 -196.5 36t-153 82t-111 119.5t-69.5 148.5t-29 169zM516 430q-1 -4 -1 -8q0 -27 35 -58q39 -36 71 -36q1 4 1 8q0 30 -36 66q-29 32 -54 32q-8 0 -16 -4zM530 635q41 9 80 9q90 0 168 -48q110 -67 129 -166 q72 90 113 307q6 35 9 53t8 51.5t5 52.5t-0.5 48t-6.5 45.5t-14.5 38t-24 34t-35.5 24.5t-48 17t-63 5q-56 0 -104 -26.5t-80.5 -67.5t-58.5 -97.5t-41 -109t-25 -109.5z" />
<glyph unicode="R" horiz-adv-x="1433" d="M41 0l231 1434l516 20q38 2 74 2q310 0 456 -118q128 -102 128 -280q0 -50 -10 -106q-13 -77 -54.5 -146.5t-91.5 -113.5t-98.5 -77t-80.5 -47l-32 -15l-4 -21l311 -450l-493 -123l-293 492h-41l-67 -451h-451zM604 758q188 0 274.5 38t104.5 136q3 18 3 34q0 18 -4 33 q-8 28 -27 44.5t-55 26t-76.5 12.5t-100.5 3h-72z" />
<glyph unicode="S" horiz-adv-x="1249" d="M-88 205l281 307q8 -7 22 -19t55 -42t80 -52.5t89.5 -41.5t90.5 -19q76 0 119 26.5t49 55.5q5 28 -19 51t-66.5 39t-97 36t-110.5 43t-107.5 59t-88.5 84t-52 119q-7 34 -7 74q0 42 8 89q12 69 47.5 134.5t96 125t139.5 104t185.5 71t225.5 26.5q80 0 159 -21t134 -51.5 t98 -60.5t65 -51l21 -21l-262 -318q-6 6 -16 15.5t-41.5 34.5t-63 44t-76 34.5t-84.5 15.5q-58 0 -95 -24.5t-42 -57.5q-4 -24 14.5 -45t53.5 -36.5t81.5 -33.5t97 -36t100.5 -44.5t93 -59t73.5 -79t41.5 -104.5q5 -27 5 -57q0 -36 -7 -79q-16 -92 -73.5 -177.5t-150 -153.5 t-228.5 -109t-295 -41q-95 0 -186 25.5t-153 61.5t-110 72t-71 62z" />
<glyph unicode="T" horiz-adv-x="1320" d="M98 1024l72 410l1243 20l-29 -389l-434 -21l-145 -1064l-467 20l182 1044z" />
<glyph unicode="U" horiz-adv-x="1507" d="M113 532l159 902h451l-145 -820q-7 -41 -8 -78q0 -67 24 -118q36 -80 131 -80q218 0 252 321q39 344 65 734l459 41q-25 -380 -80 -748q-29 -183 -102 -324.5t-176.5 -228t-226 -130.5t-259.5 -44q-91 0 -177.5 22t-162 68.5t-128 112.5t-74.5 162q-12 50 -12 104 q0 50 10 104z" />
<glyph unicode="V" horiz-adv-x="1464" d="M129 1434h512l94 -861h21l444 902l436 -144l-755 -1331h-502z" />
<glyph unicode="W" horiz-adv-x="2078" d="M135 1352l502 123l47 -840h21l268 594h389l80 -594h20l295 799h492l-594 -1393l-443 -72l-135 625h-20l-320 -594h-450z" />
<glyph unicode="X" horiz-adv-x="1372" d="M-111 184l562 574l-322 676h522l135 -349h17l405 431l281 -267l-475 -491l317 -758h-543l-157 389h-21l-420 -461z" />
<glyph unicode="Y" horiz-adv-x="1341" d="M129 1434h512l111 -471h20l365 553l374 -195l-624 -819l-88 -502h-451l88 502z" />
<glyph unicode="Z" horiz-adv-x="1269" d="M-41 0l37 328l655 696l2 20h-522l70 390h1157l-58 -328l-675 -696l-4 -21h542l-37 -389h-1167z" />
<glyph unicode="[" horiz-adv-x="921" d="M-8 -276l330 1873h737l-68 -378h-286l-199 -1137l282 -21l-88 -378z" />
<glyph unicode="\" horiz-adv-x="1228" d="M180 1495l443 184l475 -1720l-418 -164z" />
<glyph unicode="]" horiz-adv-x="921" d="M-117 -317l66 378h287l200 1137l-284 21l88 378l710 -41l-332 -1873h-735z" />
<glyph unicode="^" horiz-adv-x="1187" d="M59 696l537 717l365 -20l223 -594l-355 -154l-120 359h-21l-219 -308h-410z" />
<glyph unicode="_" horiz-adv-x="1054" d="M-182 -461l61 348l1051 -10l-88 -379z" />
<glyph unicode="`" horiz-adv-x="780" d="M195 1454l487 -20l100 -369l-303 20z" />
<glyph unicode="a" d="M7 398q1 50 7 94q19 109 67.5 207.5t121 176t173.5 123t216 45.5q50 0 98.5 -15t71.5 -31l24 -15h21l24 82l404 -41l-174 -1044l-363 -21l-6 82h-20q-11 -9 -30 -22.5t-76.5 -36.5t-112.5 -23q-77 0 -142.5 19t-112 51t-84.5 75t-59 92q-21 48 -35 100q-13 48 -13 95v7z M438 512q-6 -36 -6 -66q0 -47 15 -82q25 -57 98 -57q41 0 82 15.5t61 31.5l21 15l41 286q-5 5 -15.5 11.5t-46 18t-76.5 11.5q-70 0 -116 -56.5t-58 -127.5z" />
<glyph unicode="b" horiz-adv-x="1290" d="M31 61l256 1393l415 41l-79 -512h20q11 7 31.5 17t77 27t106.5 17q93 0 167 -30t120.5 -82t75.5 -122t32 -150q1 -15 1 -31q0 -66 -11 -137q-9 -48 -24 -94.5t-43 -100.5t-65.5 -101t-93.5 -91.5t-124 -76t-160 -50.5t-198 -19q-86 0 -169.5 10.5t-141.5 25.5t-103.5 30 t-67.5 25zM498 328q57 -21 149 -21q73 0 118.5 57t61.5 148q4 22 4 42q0 46 -19 86q-27 56 -97 56q-41 0 -78.5 -10t-54.5 -20l-17 -11z" />
<glyph unicode="c" horiz-adv-x="1013" d="M17 266q-11 52 -11 114q0 65 12 142q30 165 127 289.5t238 189t305 64.5q57 0 118.5 -12.5t107.5 -31t84.5 -36.5t58.5 -31l20 -12l-239 -307q-6 7 -17.5 17t-51.5 27t-85 17q-95 0 -157.5 -47t-77.5 -137q-3 -18 -3 -34q0 -56 36 -97q48 -53 139 -53q45 0 99.5 18 t85.5 36l32 17l110 -297q-9 -6 -24 -15.5t-63.5 -34t-97 -43.5t-117.5 -34.5t-132 -15.5q-133 0 -234 32t-171 100.5t-92 174.5z" />
<glyph unicode="d" horiz-adv-x="1290" d="M7 398q1 50 7 94q19 109 67.5 207.5t121 176t173.5 123t216 45.5q50 0 98.5 -15t71.5 -31l24 -15h21l100 512l404 -41l-250 -1474l-363 -21l-6 82h-20q-11 -9 -30 -22.5t-76.5 -36.5t-112.5 -23q-77 0 -142.5 19t-112 51t-84.5 75t-59 92q-21 48 -35 100q-13 48 -13 95v7 zM438 512q-6 -36 -6 -66q0 -47 15 -82q25 -57 98 -57q41 0 82 15.5t61 31.5l21 15l41 286q-5 5 -15.5 11.5t-46 18t-76.5 11.5q-70 0 -116 -56.5t-58 -127.5z" />
<glyph unicode="e" horiz-adv-x="1136" d="M18 323q-9 44 -9 93q0 55 11 116q27 151 129.5 273.5t255 191t324.5 68.5q118 0 206 -28t135 -75q48 -46 66 -104q11 -36 12 -74q0 -23 -5 -47q-17 -96 -69.5 -172t-127 -122.5t-162.5 -70.5t-182 -24q-36 0 -76 5t-62 11l-22 5l-4 -21q8 -7 23 -17t60.5 -27t90.5 -17 q71 0 145.5 15.5t112.5 30.5l39 15l101 -266q-9 -5 -24.5 -13.5t-64.5 -29.5t-100 -37t-124 -29.5t-142 -13.5q-100 0 -188 22t-161.5 67.5t-121 114t-66.5 160.5zM483 612q251 3 265 95q2 8 2 15q0 21 -14 36q-18 20 -56 20q-137 0 -197 -166z" />
<glyph unicode="f" horiz-adv-x="870" d="M68 676l36 328h154l10 61q20 111 67 199t110.5 142t135.5 82t148 28q86 0 167 -18t119 -36l38 -18l-144 -287q-44 31 -116 31q-39 0 -67 -31.5t-38 -91.5l-10 -61h246l-78 -328h-236l-98 -676l-414 -20l103 696h-133z" />
<glyph unicode="g" horiz-adv-x="1249" d="M2 -328l178 308q15 -9 39 -22.5t86 -36.5t107 -23q103 0 160.5 39t68.5 104h-20q-11 -7 -31.5 -17t-77 -27t-106.5 -17q-93 0 -167 30t-120 82t-75.5 122t-32.5 150q-1 17 -1 33q0 65 10 135q12 69 38 135t80.5 140.5t129.5 129.5t194.5 91.5t266.5 36.5 q86 0 169.5 -10.5t141.5 -25.5t103.5 -30t67.5 -25l22 -11l-154 -881q-30 -169 -126.5 -288.5t-234 -176.5t-304.5 -57q-77 0 -148 11.5t-117 28t-81 33t-50 27.5zM438 512q-4 -22 -4 -43q0 -46 18 -85q27 -56 97 -56q41 0 78 10t54 20l17 11l68 327q-58 21 -150 21 q-73 0 -118.5 -57t-59.5 -148z" />
<glyph unicode="h" horiz-adv-x="1290" d="M20 0l252 1436l426 39l-88 -502h21q10 6 29 14.5t75 22.5t111 14q76 0 138 -18t113 -58.5t79 -105t36 -156.5q2 -25 3 -52q0 -73 -17 -163l-80 -451l-411 -20l81 471q6 30 6 56q0 53 -26 83q-38 45 -111 45q-27 0 -54.5 -10.5t-41.5 -20.5l-14 -10l-107 -614h-420z" />
<glyph unicode="i" horiz-adv-x="634" d="M10 0l176 1004h410l-135 -1004h-451zM199 1303q13 83 88 148t184 65q88 0 151 -62q51 -50 51 -112q0 -15 -3 -31q-13 -77 -88 -141t-183 -64q-98 0 -156 60q-47 48 -47 107q0 15 3 30z" />
<glyph unicode="j" horiz-adv-x="634" d="M-238 -246q9 5 23.5 14.5t53 40.5t70 64.5t61.5 84.5t40 103l187 943h419l-194 -984q-17 -88 -54 -164.5t-82.5 -129t-97 -96t-99 -69t-86 -43t-61.5 -24.5l-24 -6zM219 1311q14 79 95 142t178 63t154 -63q47 -51 47 -112q0 -15 -3 -30q-12 -79 -92.5 -142t-177.5 -63 t-155 63q-48 52 -48 115q0 13 2 27z" />
<glyph unicode="k" horiz-adv-x="1208" d="M33 20l243 1434l416 41l-114 -717h20l401 307l199 -266l-369 -287l324 -491l-446 -61l-189 348h-20l-58 -328z" />
<glyph unicode="l" horiz-adv-x="675" d="M23 20l249 1414l416 41l-237 -1475z" />
<glyph unicode="m" horiz-adv-x="1945" d="M16 -20l164 1044l361 20l16 -81h21q15 9 41.5 22.5t98 36t130.5 22.5q55 0 103.5 -12.5t78.5 -30.5t52.5 -36t31.5 -31l10 -12q8 5 23 13t59 29t86.5 37.5t98.5 29.5t102 13q209 0 300 -126q62 -85 62 -242q0 -74 -14 -164l-80 -512h-440l90 512q10 56 10 97q0 36 -8 59 q-17 49 -72 49q-31 0 -64 -15.5t-50 -31.5l-17 -15l-114 -655l-432 -10l92 522q8 50 8 89q0 116 -76 116q-34 0 -67 -15.5t-49 -31.5l-17 -15l-115 -655z" />
<glyph unicode="n" horiz-adv-x="1280" d="M27 -20l153 1044l361 20l16 -81h21q15 9 41.5 22.5t98 36t130.5 22.5q85 0 148 -17t110.5 -55.5t70 -100t27.5 -151.5q1 -16 0 -32q0 -78 -18 -176l-90 -512q-26 -1 -68.5 -1.5t-133 -2t-150.5 -2.5t-60 0l92 518q4 32 4 62v20q-2 38 -21.5 65t-53.5 27q-27 0 -65 -10 t-62 -20l-25 -11l-102 -645z" />
<glyph unicode="o" horiz-adv-x="1208" d="M20 532q44 245 225 389t443 144q77 0 145 -18t118.5 -49.5t92.5 -74.5t67 -94t41.5 -107.5t16.5 -114t-8 -115.5q-18 -102 -70.5 -196t-134 -170t-201.5 -121.5t-261 -45.5q-114 0 -211.5 44t-162.5 119q-65 74 -93 182q-16 61 -16 127q0 50 9 101zM423 454q1 -34 9 -74 q8 -42 38.5 -67.5t80.5 -25.5q83 0 135.5 65t65.5 140q6 47 6 88q0 16 -1 30q-3 54 -35.5 90.5t-90.5 36.5q-41 0 -74.5 -16t-54.5 -38.5t-37 -52.5t-23.5 -53t-11.5 -45q-7 -41 -7 -78z" />
<glyph unicode="p" horiz-adv-x="1269" d="M-49 -451l229 1475l361 20l6 -81h20q11 9 30 22.5t76.5 36t112.5 22.5q77 0 142.5 -18.5t112.5 -51t84.5 -75.5t58.5 -91.5t36 -100.5q13 -49 13 -95v-6q-1 -49 -6 -94q-19 -109 -68 -207.5t-121.5 -176t-174 -123.5t-216.5 -46q-50 0 -93.5 15t-61.5 30l-19 16h-20 l-70 -450zM489 348q5 -5 15.5 -11.5t46 -18t76.5 -11.5q70 0 117 57t59 128q6 35 6 64q0 49 -16 84q-26 56 -99 56q-41 0 -82 -15t-62 -31l-20 -15z" />
<glyph unicode="q" horiz-adv-x="1269" d="M11 364q-1 17 -1 33q0 65 10 135q12 69 38 135t80.5 140.5t129.5 129.5t194.5 91.5t266.5 36.5q86 0 169.5 -10.5t141.5 -25.5t103.5 -30t67.5 -25l22 -11l-256 -1393l-416 -41l80 512h-20q-11 -7 -31.5 -17t-77 -27t-106.5 -17q-93 0 -167 30t-120 82t-75.5 122 t-32.5 150zM438 512q-4 -22 -4 -43q0 -46 18 -85q27 -56 97 -56q41 0 78 10t54 20l17 11l68 327q-58 21 -150 21q-73 0 -118.5 -57t-59.5 -148z" />
<glyph unicode="r" horiz-adv-x="942" d="M16 -20l164 1044l350 20l7 -81h20q10 9 27.5 22.5t72 36t109.5 22.5q52 0 98.5 -14.5t77 -35.5t53.5 -42.5t33 -35.5l10 -15l-258 -307q-2 3 -6.5 8.5t-19 20t-29.5 25t-38 19.5t-46 9q-24 0 -48.5 -8t-36.5 -16l-13 -7l-103 -645z" />
<glyph unicode="s" horiz-adv-x="1013" d="M-82 123l186 246q14 -12 38 -29t84.5 -45.5t105.5 -28.5q123 0 133 51q3 18 -20 31.5t-62 24.5t-86 24.5t-91.5 38.5t-79.5 60q-34 34 -49 94q-8 31 -8 67q0 33 7 70q8 47 34.5 94t73 91.5t108 78t145.5 54t179 20.5q69 0 138 -14.5t118.5 -35.5t89.5 -42.5t60 -36.5 l20 -14l-186 -246q-12 9 -33 22.5t-77 36.5t-101 23q-46 0 -77.5 -14t-35.5 -37q-3 -18 21 -32.5t64.5 -26.5t89 -27t96 -40t83.5 -59q38 -32 54 -88q10 -32 9 -70q0 -27 -5 -57q-11 -63 -55 -124t-113.5 -111.5t-173 -81.5t-221.5 -31q-86 0 -165.5 17t-131 41t-91 48 t-57.5 41z" />
<glyph unicode="t" horiz-adv-x="860" d="M37 676l78 328h123l38 225l424 80l-53 -305h246l-94 -297l-207 -11l-49 -286q-3 -14 -3 -26q0 -28 14 -48q20 -30 52 -29q27 0 54 5.5t40 10.5l13 5l51 -287q-6 -3 -16 -8.5t-45 -20t-72.5 -25t-94.5 -19.5t-114 -9q-172 1 -252 107q-56 74 -56 192q0 51 11 111l57 317z " />
<glyph unicode="u" horiz-adv-x="1300" d="M70 304q-1 14 0 28q0 79 20 180l90 512q26 1 68.5 1.5t132.5 2t149.5 2.5t59.5 0l-90 -518q-4 -32 -4 -62v-20q2 -38 21.5 -65t53.5 -27q27 0 64.5 10t61.5 20l24 11l104 645l422 20l-151 -1044l-363 -20l-16 81h-21q-15 -9 -41.5 -22.5t-98 -36t-130.5 -22.5 q-85 0 -148 17t-110.5 55.5t-70.5 100t-27 151.5z" />
<glyph unicode="v" horiz-adv-x="1228" d="M74 1004l456 40l54 -573h20l324 614l387 -122l-578 -963h-471z" />
<glyph unicode="w" horiz-adv-x="1708" d="M74 1004l465 40l6 -552h20l189 368l329 21l19 -369h20l213 512l453 20l-457 -1024l-436 -40l-66 389h-20l-176 -359l-451 -10z" />
<glyph unicode="x" horiz-adv-x="1165" d="M-86 164l401 368l-256 512l480 -10l90 -235h20l297 286l266 -227l-387 -346l260 -492l-473 -20l-114 225h-21l-297 -286z" />
<glyph unicode="y" horiz-adv-x="1280" d="M2 -328l178 308q15 -9 39 -22.5t86 -36.5t107 -23q204 0 235 174h-20q-8 -6 -24 -14.5t-71.5 -23t-119.5 -14.5q-329 0 -329 366q0 88 19 198l88 440l412 20l-86 -491q-5 -33 -5 -61q0 -42 13 -69q22 -44 64 -44q32 0 62 10.5t44 20.5l15 10l116 604l432 20l-167 -962 q-22 -127 -84.5 -227.5t-153.5 -164.5t-202.5 -97t-235.5 -33q-77 0 -148 11.5t-117 28t-81 33t-50 27.5z" />
<glyph unicode="z" horiz-adv-x="1054" d="M-74 -10l68 327l452 359l3 20l-392 -20l41 348l965 20l-57 -327l-445 -379l-4 -21l412 11l-41 -348z" />
<glyph unicode="{" horiz-adv-x="942" d="M16 451l60 327q95 15 175 98t99 189q36 200 112 313t218 166t379 53l-47 -389h-41q-63 0 -115 -60.5t-70 -164.5q-14 -80 -53.5 -147.5t-85.5 -107t-90 -67t-73 -37.5l-29 -10l-2 -20q10 -2 27.5 -6.5t59 -27t70.5 -55t46 -96t3 -143.5q-18 -105 12 -165t93 -60h41 l-88 -389q-178 0 -289.5 28.5t-173.5 91.5t-72.5 164.5t13.5 247.5q20 104 -32.5 177.5t-146.5 89.5z" />
<glyph unicode="|" horiz-adv-x="716" d="M14 -143l338 1802l408 -21l-336 -1781h-410z" />
<glyph unicode="}" horiz-adv-x="942" d="M-102 -348l47 389h41q63 0 113.5 60t68.5 165q14 80 53.5 147.5t85.5 107t90.5 67t73.5 37.5l29 10l4 20q-11 2 -28 6.5t-59 27t-71.5 55t-47 96t-3.5 143.5q18 105 -10.5 165t-91.5 60h-41l88 389q143 0 241.5 -18t165 -57t96.5 -101.5t35 -151t-18 -204.5 q-18 -104 34 -177t144 -89l-57 -328q-96 -15 -176.5 -97.5t-100.5 -189.5q-26 -150 -72.5 -248t-129.5 -163t-204.5 -93t-299.5 -28z" />
<glyph unicode="~" horiz-adv-x="1177" d="M57 676q7 11 21 29.5t58 66.5t91 84t117 66t139 30q55 0 102.5 -19t75 -42.5t62.5 -42.5t68 -19q36 0 82 28.5t74 56.5l28 28l174 -287q-6 -9 -17 -23.5t-49 -51.5t-80.5 -65.5t-110.5 -51.5t-140 -23q-43 0 -79.5 12.5t-63 30.5t-50.5 36.5t-53 31t-60 12.5 q-41 0 -89.5 -28t-76.5 -56l-28 -28z" />
<glyph unicode="&#xa1;" horiz-adv-x="686" d="M-74 -410l297 983l385 -20l-155 -1004zM246 881q14 79 94.5 141.5t177.5 62.5t155 -62.5t44 -141.5q-12 -79 -93 -142t-178 -63t-154.5 63t-45.5 142z" />
<glyph unicode="&#xa2;" horiz-adv-x="1040" d="M18 522q36 199 187 342.5t354 184.5l25 139h286l-24 -137q64 -15 128.5 -42t97.5 -47l32 -20l-240 -307q-7 7 -19 17t-52 27t-82 17q-232 0 -262 -184q-14 -80 36.5 -132t161.5 -52q45 0 99.5 18t85.5 36l32 17l111 -297l-16.5 -11t-45 -25.5t-70 -34.5t-87.5 -33.5 t-101 -26.5l-24 -135h-287l25 139q-194 36 -291.5 181.5t-59.5 365.5z" />
<glyph unicode="&#xa3;" horiz-adv-x="1290" d="M-37 31l37 327q114 3 183.5 49.5t88.5 155.5l-192 10l53 308l182 -4q41 196 135 332t221.5 201t282.5 65q71 0 136 -18.5t110 -44.5t85.5 -63t63.5 -66.5t44 -61.5l-263 -267q-3 6 -9.5 16.5t-27 36.5t-43 46t-56 36.5t-66.5 16.5q-76 0 -127.5 -50.5t-69.5 -154.5 l-6 -35l287 -6l-39 -328l-293 13q-7 -37 -27 -76t-37 -59l-16 -21l-4 -20q108 -11 331 -14.5t279 -6.5l-16 -328q-105 -19 -601.5 -17.5t-625.5 28.5z" />
<glyph unicode="&#xa4;" horiz-adv-x="1517" d="M-20 242l51 288l184 -4l16 92l-182 13l51 289l187 -5l102 539q152 6 259 11.5t135.5 7t68 2t133.5 0.5q100 0 188.5 -15.5t163.5 -48t127 -80.5t77.5 -116t17.5 -150q-22 -214 -211 -342.5t-517 -128.5h-133l-14 -74l453 -6l-37 -319l-469 18l-45 -254l-469 41l43 233z M760 942h133q153 0 170 102q9 46 -26 74.5t-109 28.5h-133z" />
<glyph unicode="&#xa5;" horiz-adv-x="1402" d="M80 225l49 277h328l-27 80l-289 -11l76 318l111 2l-178 543h512l110 -471h21l364 553l375 -195l-315 -414l120 2l-53 -297l-303 -12l-74 -98h338l-35 -316l-356 13l-35 -199h-450l37 213z" />
<glyph unicode="&#xa6;" horiz-adv-x="716" d="M14 -143l138 733l407 -10l-135 -723h-410zM215 920l137 739l408 -21l-137 -725z" />
<glyph unicode="&#xa7;" horiz-adv-x="1228" d="M-82 -348l238 307q12 -9 33 -22.5t77 -36.5t101 -23q33 0 60.5 16.5t31.5 45.5q6 33 -18.5 59.5t-68 47.5t-96 44.5t-103 58.5t-89 80.5t-55 118t-0.5 164.5q11 63 47 124t79 103.5t85 76t70 49.5l28 16l4 20q-2 1 -6 4t-15.5 12.5t-20 22t-20.5 33t-16.5 44.5t-7.5 57 t6 71q23 132 176 231t373 99q82 0 186 -20.5t167 -40.5l63 -21l-164 -349q-10 7 -28 17.5t-69 27.5t-96 17q-64 0 -106.5 -16t-48.5 -46q-4 -22 16 -40t55 -31.5t80 -31.5t91 -40t88 -55t71.5 -77.5t41 -109t-2.5 -147.5q-8 -46 -29.5 -89t-48.5 -74.5t-58 -59t-60.5 -46 t-53.5 -32t-39 -19.5l-14 -6l-4 -20q2 -1 5 -3.5t13 -11.5t18.5 -19t21.5 -26t21.5 -33t19 -39.5t13.5 -46t5.5 -52.5t-4.5 -58q-8 -44 -38 -93t-85 -98.5t-125.5 -89t-167.5 -64t-203 -24.5q-69 0 -138 15t-118 36t-88.5 42t-59.5 36zM457 500q-6 -31 6.5 -56t34 -38.5 t43.5 -22.5t39 -11l16 -3q4 1 10.5 3t24.5 11.5t32.5 22.5t29 38.5t20.5 57.5q5 32 -27.5 65t-67.5 51l-36 17q-4 -2 -11.5 -5t-27.5 -15.5t-35.5 -26.5t-31 -38t-19.5 -50z" />
<glyph unicode="&#xa8;" horiz-adv-x="1024" d="M203 1393q14 79 78 141.5t163 62.5q86 0 135.5 -55t34.5 -139q-14 -78 -75.5 -136.5t-161.5 -58.5q-90 0 -138 53.5t-36 131.5zM694 1393q14 78 78.5 141t163.5 63q86 0 135.5 -55t34.5 -139q-13 -78 -75.5 -136.5t-162.5 -58.5q-90 0 -138 53.5t-36 131.5z" />
<glyph unicode="&#xa9;" horiz-adv-x="1925" d="M33 532q-4 90 10 185q22 121 82.5 240.5t160 227.5t224.5 190.5t287.5 131.5t337.5 49q222 0 390 -63.5t265.5 -176t133 -265.5t3.5 -334q-23 -132 -86.5 -256t-163 -230t-225.5 -185t-284.5 -124t-329.5 -45q-118 0 -225 23.5t-192.5 66t-156.5 102.5t-118 132.5 t-78 156.5t-35 174zM412 717q-43 -247 89.5 -379.5t393.5 -132.5q276 0 450 141t214 371q43 241 -80.5 376.5t-403.5 135.5q-138 0 -256 -41t-200 -112t-135 -162.5t-72 -196.5zM601.5 608q-3.5 53 4.5 109q29 162 152.5 265t322.5 103q55 0 119.5 -10.5t101.5 -20.5l37 -10 l-100 -225q-58 21 -119 21q-68 0 -122.5 -34t-65.5 -99q-9 -51 23 -82t81 -31q36 0 81.5 10t72.5 20l27 11l57 -205q-20 -9 -54 -22.5t-120 -36.5t-150 -23q-83 0 -149 20.5t-105.5 56t-65 83t-29 100.5z" />
<glyph unicode="&#xaa;" horiz-adv-x="942" d="M141 922q12 70 65.5 123t121.5 79t134 42t111 19l45 3q6 36 -12 59t-55 23q-45 0 -101.5 -15.5t-89.5 -30.5l-34 -16l-52 185q21 9 56 22.5t128 36.5t169 23q186 0 259 -107t40 -295l-64 -356l-270 -21l2 62h-21q-3 -3 -9.5 -8.5t-27.5 -20t-44 -25t-57.5 -19.5t-69.5 -9 q-117 0 -180.5 68.5t-43.5 177.5zM453 942q-5 -29 8 -50.5t49 -21.5q23 0 45.5 10t33.5 20l11 11l23 123q-6 0 -17 -1t-38.5 -6.5t-49.5 -14t-41.5 -27t-23.5 -43.5z" />
<glyph unicode="&#xab;" horiz-adv-x="1269" d="M31 532l499 512l211 -204l-280 -308l-2 -20l164 -348l-320 -184zM543 532l493 472l234 -185l-301 -309l-2 -21l186 -325l-319 -184z" />
<glyph unicode="&#xac;" horiz-adv-x="1187" d="M68 625l65 368l1028 -30l-88 -564l-416 21l43 194z" />
<glyph unicode="&#xad;" horiz-adv-x="921" d="M31 410l57 327l797 -10l-80 -338z" />
<glyph unicode="&#xae;" horiz-adv-x="1925" d="M33 532q-4 90 10 185q22 121 82.5 240.5t160 227.5t224.5 190.5t287.5 131.5t337.5 49q222 0 390 -63.5t265.5 -176t133 -265.5t3.5 -334q-23 -132 -86.5 -256t-163 -230t-225.5 -185t-284.5 -124t-329.5 -45q-118 0 -225 23.5t-192.5 66t-156.5 102.5t-118 132.5 t-78 156.5t-35 174zM412 717q-43 -247 89.5 -379.5t393.5 -132.5q276 0 450 141t214 371q43 241 -80.5 376.5t-403.5 135.5q-138 0 -256 -41t-200 -112t-135 -162.5t-72 -196.5zM569 389l142 686h307q167 0 267.5 -60.5t82.5 -164.5q-7 -37 -25.5 -70t-40.5 -53t-42.5 -34.5 t-33.5 -20.5l-14 -6l-4 -21l127 -215l-334 -82l-79 184h-21l-31 -174zM946 788h31q82 0 92 52q5 41 -55 41q-14 0 -27 -2.5t-19 -5.5l-7 -3z" />
<glyph unicode="&#xaf;" horiz-adv-x="901" d="M219 1249l37 328l739 10l-57 -327z" />
<glyph unicode="&#xb0;" horiz-adv-x="929" d="M131 1096q13 74 54.5 148t103 135t147.5 99t178 38q97 0 174.5 -35.5t123 -94t63 -135t2.5 -157.5q-27 -164 -164.5 -270.5t-339.5 -106.5q-188 0 -280 107t-62 272zM446 1096q-12 -63 13.5 -98t77.5 -35q45 0 80.5 34t46.5 99q10 64 -13.5 98.5t-77.5 34.5 q-52 0 -85 -40t-42 -93z" />
<glyph unicode="&#xb1;" horiz-adv-x="1320" d="M25 82l63 369l348 -7l43 242l-379 10l66 369h379l57 328l397 -21l-55 -307h359l-50 -399l-376 10l-43 -240l358 -6l-86 -369z" />
<glyph unicode="&#xb2;" horiz-adv-x="808" d="M127 657l27 215q14 7 37.5 20t84 51t108.5 73.5t90 81t48 80.5q4 25 -11 38t-42 13q-35 0 -76.5 -16.5t-65.5 -32.5l-24 -17l-92 152q8 7 21.5 17.5t56 38t84.5 48.5t100 38.5t109 17.5q143 0 206.5 -63t42.5 -175q-11 -64 -49 -122t-83.5 -95t-89.5 -65.5t-73 -40.5 l-30 -13l-4 -20l278 10l-41 -234h-612z" />
<glyph unicode="&#xb3;" horiz-adv-x="808" d="M90 743l131 150q8 -6 22.5 -15t56.5 -23.5t81 -14.5q95 0 106 71q5 28 -11.5 44t-57.5 16h-74l31 170q5 0 14 0.5t33 5t42.5 11t35.5 21t20 33.5q3 21 -12.5 37.5t-50.5 16.5q-34 0 -73 -12t-61 -24l-22 -13l-70 149q6 4 18 11.5t47 26.5t70 33t83 26t90 12 q141 0 206 -59.5t50 -145.5q-6 -36 -24 -67.5t-39.5 -52t-41.5 -35.5t-34 -21l-13 -7l-4 -22q7 -1 18 -4t38.5 -17.5t47 -33.5t31.5 -56t4 -82q-19 -108 -130.5 -183t-270.5 -75q-49 0 -96.5 13.5t-80.5 32t-59 37.5t-39 33z" />
<glyph unicode="&#xb4;" horiz-adv-x="780" d="M168 1188l231 368l494 21l-414 -369z" />
<glyph unicode="&#xb5;" horiz-adv-x="1300" d="M-74 -410l254 1434q26 1 68.5 1.5t132.5 2t149.5 2.5t59.5 0l-90 -518q-10 -59 14 -96t64 -37q27 0 65 10.5t62 20.5l24 10l96 604l422 20l-151 -1044l-363 -20l-16 81h-21q-9 -7 -25.5 -17t-65 -27t-93.5 -17q-18 0 -38 5t-31 10l-11 5h-20l-76 -430h-410z" />
<glyph unicode="&#xb6;" horiz-adv-x="1576" d="M100 1044q33 186 171 298t313 112l1122 -20l-47 -379l-223 10l-281 -1475h-389l285 1495h-144l-284 -1495h-390l193 1035q-184 8 -272.5 110.5t-53.5 308.5z" />
<glyph unicode="&#xb7;" horiz-adv-x="532" d="M49 696q14 79 95 142t178 63t154.5 -63t43.5 -142q-12 -79 -92.5 -141.5t-177.5 -62.5t-155 62.5t-46 141.5z" />
<glyph unicode="&#xb8;" horiz-adv-x="757" d="M-111 -522l97 153q2 -3 8 -8t33 -13.5t65 -8.5q93 0 103 51q4 26 -13 45t-44.5 27.5t-55.5 13.5t-48 6h-20l47 256h226l-17 -92q6 -1 16 -3t38 -10.5t53 -20t54.5 -33.5t48.5 -48t28.5 -65.5t1.5 -85.5q-18 -95 -120.5 -165.5t-250.5 -70.5q-62 0 -124.5 18t-94.5 36z " />
<glyph unicode="&#xb9;" horiz-adv-x="729" d="M131 1208l356 226h236l-98 -553l88 -11l-33 -215l-526 2l45 244l120 -10l41 235l-108 -41z" />
<glyph unicode="&#xba;" horiz-adv-x="952" d="M150 1085q31 178 160 284t317 106q78 0 142.5 -24t106 -64.5t69.5 -93.5t33 -111t-3 -117q-13 -74 -51 -143t-98.5 -125t-148.5 -89.5t-190 -33.5q-167 0 -267 118.5t-70 292.5zM433 1014.5q0 -38.5 24.5 -71t70.5 -32.5q62 0 101 50t49 104q14 74 -7 124t-85 50 q-35 0 -64 -17.5t-46 -44t-26.5 -49.5t-13.5 -43q-3 -32 -3 -70.5z" />
<glyph unicode="&#xbb;" horiz-adv-x="1269" d="M-27 205l301 309l5 21l-187 325l318 184l290 -552l-493 -472zM502 184l280 308l4 20l-163 348l317 184l272 -552l-499 -512z" />
<glyph unicode="&#xbc;" horiz-adv-x="1855" d="M98 -76l1495 1610l267 -102l-1403 -1508h-359zM160 698l41 238l149 -4l41 235q-13 -6 -60.5 -21.5t-54.5 -19.5l-116 129l356 220l246 -2l-94 -541h88l-39 -236zM940 137l27 174l444 484h303l-84 -435h105l-43 -223h-95v-4q-19 -93 -38 -213l-306 10l37 207h-350z M1212 328h168l37 215q-10 -12 -102 -107t-103 -108z" />
<glyph unicode="&#xbd;" horiz-adv-x="1845" d="M68 -76l1495 1610l266 -102l-1403 -1508h-358zM160 698l41 238l149 -4l41 235q-13 -6 -60.5 -21.5t-54.5 -19.5l-116 129l356 220l246 -2l-94 -541h88l-39 -236zM938 -78l29 184q33 17 93.5 48t91 47t76.5 41.5t70 43t50.5 39.5t39.5 43t17 42q7 44 -6.5 65t-42.5 19 q-21 -1 -40.5 -9.5t-32.5 -18t-30.5 -31t-25.5 -34t-27 -41.5l-211 48q116 164 223 245.5t234 81.5q145 0 220.5 -78t55.5 -186q-16 -92 -107 -186t-210 -162h256l-37 -199z" />
<glyph unicode="&#xbe;" horiz-adv-x="1853" d="M66 721l161 164q94 -64 158 -64q115 0 127 64q4 24 0.5 38.5t-18 22.5t-24.5 10.5t-36 6.5l-119 2l45 163l113 -4q31 -3 56.5 8t29.5 37q5 27 -18 51.5t-66 24.5q-44 0 -70.5 -9t-72.5 -40l-133 111q239 176 381 176q159 0 223.5 -71t44.5 -191q-8 -52 -54 -101t-118 -65 q74 -11 102 -69.5t15 -129.5q-25 -130 -126.5 -201t-269.5 -71q-85 0 -173.5 40t-157.5 97zM109 -76l1495 1610l266 -102l-1403 -1508h-358zM936 137l29 174l444 484h303l-84 -435h105l-43 -223h-95v-4q-31 -152 -41 -213l-305 10l39 207h-352zM1210 328h168l37 215 q-10 -12 -102 -107t-103 -108z" />
<glyph unicode="&#xbf;" horiz-adv-x="1126" d="M16 -20q14 79 44 140.5t68 100.5t81 70t86.5 56.5t81 52t66.5 65.5t42 88l404 -41q-19 -77 -56.5 -137t-79.5 -94.5t-89 -65.5t-85 -52t-66.5 -52.5t-35.5 -69.5q-7 -42 30 -72t75 -30q40 0 83 17t75.5 41t59.5 47.5t42 40.5l14 17l248 -225q-5 -6 -15 -17.5t-44 -43 t-70 -60.5t-92 -64.5t-112.5 -61t-129 -43t-143.5 -17.5q-254 0 -384 118t-98 292zM510 860q12 79 92.5 142t177.5 63t155 -63t46 -142q-14 -79 -94.5 -142t-177.5 -63t-155 63t-44 142z" />
<glyph unicode="&#xc0;" horiz-adv-x="1525" d="M-143 0l815 1434l538 41l277 -1452l-492 -64l-57 369h-420l-170 -328h-491zM530 1974l488 -20l100 -369l-303 21zM664 635h235l-47 307h-21z" />
<glyph unicode="&#xc1;" horiz-adv-x="1525" d="M-143 0l815 1434l538 41l277 -1452l-492 -64l-57 369h-420l-170 -328h-491zM664 635h235l-47 307h-21zM836 1602l231 368l494 21l-414 -369z" />
<glyph unicode="&#xc2;" horiz-adv-x="1525" d="M-143 0l815 1434l538 41l277 -1452l-492 -64l-57 369h-420l-170 -328h-491zM514 1630l383 430h307l240 -379l-324 -92l-110 185h-21l-133 -175zM664 635h235l-47 307h-21z" />
<glyph unicode="&#xc3;" horiz-adv-x="1525" d="M-143 0l815 1434l538 41l277 -1452l-492 -64l-57 369h-420l-170 -328h-491zM594 1812q6 9 16.5 23.5t44.5 51.5t69.5 65.5t88.5 52t105 23.5q45 0 83.5 -13t59.5 -28t44.5 -28t43.5 -13q32 0 66.5 23t53.5 46l19 23l133 -236q-5 -7 -14 -18t-39.5 -39t-62.5 -50 t-81 -39.5t-98 -17.5q-52 0 -95 20.5t-78.5 41t-69.5 20.5q-31 0 -65.5 -23t-53.5 -46l-19 -23zM664 635h235l-47 307h-21z" />
<glyph unicode="&#xc4;" horiz-adv-x="1525" d="M-143 0l815 1434l538 41l277 -1452l-492 -64l-57 369h-420l-170 -328h-491zM545 1804q14 79 78 142t163 63q86 0 135.5 -55t34.5 -139q-14 -78 -75.5 -136.5t-161.5 -58.5q-90 0 -138 53t-36 131zM664 635h235l-47 307h-21zM1036 1804q14 79 78.5 142t163.5 63 q86 0 135.5 -55t34.5 -139q-13 -78 -75.5 -136.5t-162.5 -58.5q-90 0 -138 53t-36 131z" />
<glyph unicode="&#xc5;" horiz-adv-x="1525" d="M-143 0l815 1434l538 41l277 -1452l-492 -64l-57 369h-420l-170 -328h-491zM664 635h235l-47 307h-21zM688 1864q24 133 127.5 220t253.5 87q146 0 222 -91.5t52 -215.5q-21 -119 -126 -203t-252 -84t-224 77.5t-53 209.5zM934 1864q-7 -42 11.5 -67t53.5 -25 q36 0 64 25.5t35 66.5q6 40 -13.5 66t-52.5 26q-35 0 -63.5 -27.5t-34.5 -64.5z" />
<glyph unicode="&#xc6;" horiz-adv-x="1925" d="M-117 143l860 1291h1239l-96 -369h-540l-29 -164h469l-33 -358h-500l-30 -174l598 -21l-80 -348h-1014l53 307h-317l-225 -348zM639 614h195l61 349h-21z" />
<glyph unicode="&#xc7;" horiz-adv-x="1310" d="M88 737q129 738 836 738q87 0 165 -20.5t140 -58t103 -70.5t85 -77l-284 -274q-5 5 -13.5 13t-36.5 29t-56.5 37t-69 29t-78.5 13q-65 0 -116.5 -22.5t-84.5 -56.5t-58.5 -90t-40 -107.5t-28.5 -123.5q-8 -44 -9 -88.5t8.5 -94.5t30.5 -87.5t63 -62.5t101 -25 q52 0 106 14.5t94.5 35.5t73.5 42.5t51 35.5l17 15l193 -297q-10 -9 -29 -24t-79.5 -54t-123 -68.5t-153.5 -54t-178 -24.5h-21l-8 -51q6 -1 16 -3t38 -10.5t53 -20t54.5 -33.5t48.5 -48t28.5 -65.5t1.5 -85.5q-18 -95 -120.5 -165.5t-250.5 -70.5q-62 0 -125 18t-95 36 l-32 18l98 153q2 -3 8 -8t33.5 -13.5t65.5 -8.5q92 0 102 51q4 26 -13 45t-44.5 27.5t-55 13.5t-47.5 6h-20l43 240q-500 115 -387 753z" />
<glyph unicode="&#xc8;" d="M20 0l273 1434h1014l-97 -369h-553l-28 -164h491l-43 -358h-512l-30 -174l600 -21l-80 -348h-1035zM434 1987l488 -21l100 -369l-303 21z" />
<glyph unicode="&#xc9;" d="M20 0l273 1434h1014l-97 -369h-553l-28 -164h491l-43 -358h-512l-30 -174l600 -21l-80 -348h-1035zM643 1577l231 369l494 20l-414 -369z" />
<glyph unicode="&#xca;" d="M20 0l273 1434h1014l-97 -369h-553l-28 -164h491l-43 -358h-512l-30 -174l600 -21l-80 -348h-1035zM373 1577l383 430h307l240 -379l-324 -92l-111 184h-20l-133 -174z" />
<glyph unicode="&#xcb;" d="M20 0l273 1434h1014l-97 -369h-553l-28 -164h491l-43 -358h-512l-30 -174l600 -21l-80 -348h-1035zM414 1761q14 79 78 142t163 63q86 0 135.5 -55t34.5 -139q-14 -78 -75.5 -136.5t-161.5 -58.5q-90 0 -138 53t-36 131zM905 1761q14 79 78.5 142t163.5 63 q86 0 135.5 -55t34.5 -139q-13 -78 -75.5 -136.5t-162.5 -58.5q-90 0 -138 53t-36 131z" />
<glyph unicode="&#xcc;" horiz-adv-x="995" d="M-29 0l39 348h226l133 748l-234 10l62 348l897 -20l-68 -328l-231 -31l-109 -727h225l-59 -348h-881zM285 1974l487 -20l100 -369l-303 21z" />
<glyph unicode="&#xcd;" horiz-adv-x="976" d="M-31 0l39 348h225l134 748l-234 10l62 348l897 -20l-68 -328l-231 -31l-109 -727h225l-59 -348h-881zM494 1581l231 369l494 20l-414 -368z" />
<glyph unicode="&#xce;" horiz-adv-x="1003" d="M-23 0l39 348h226l133 748l-234 10l62 348l897 -20l-68 -328l-231 -31l-109 -727h226l-60 -348h-881zM221 1612l383 430h307l240 -379l-324 -92l-110 184h-21l-133 -174z" />
<glyph unicode="&#xcf;" horiz-adv-x="1017" d="M-6 0l39 348h225l133 748l-233 10l61 348l897 -20l-67 -328l-232 -31l-108 -727h225l-60 -348h-880zM250 1784q14 79 78.5 142t163.5 63q86 0 135.5 -55.5t34.5 -139.5q-13 -78 -75.5 -136.5t-162.5 -58.5q-90 0 -138 53.5t-36 131.5zM741 1784q14 79 78.5 142t163.5 63 q86 0 135.5 -55.5t34.5 -139.5q-13 -78 -75.5 -136.5t-162.5 -58.5q-90 0 -138 53.5t-36 131.5z" />
<glyph unicode="&#xd0;" horiz-adv-x="1505" d="M0 471l90 389h143l101 574h584q339 0 482.5 -196.5t82.5 -541.5q-39 -223 -154.5 -390.5t-289 -257t-382.5 -89.5q-247 0 -575 41l84 481zM565 307h123q65 0 117.5 21.5t87.5 56t61 86.5t41.5 105t26.5 120q6 31 9.5 60.5t4.5 70t-4 74.5t-19 69t-37 59.5t-61.5 40 t-89.5 15.5h-102l-49 -225h153l-61 -348l-166 -10z" />
<glyph unicode="&#xd1;" horiz-adv-x="1576" d="M61 0l211 1434h430l299 -686h21l137 727l445 -41l-287 -1393l-436 -41l-279 635h-20l-90 -635h-431zM541 1792q6 9 16.5 23.5t44 51.5t69.5 65.5t88.5 51.5t104.5 23q45 0 83.5 -13t60 -28t45 -28t43.5 -13t42 9.5t38.5 23t30 27t21.5 23.5l7 9l133 -235q-5 -7 -14 -18 t-39.5 -39t-62.5 -50t-81 -39.5t-98 -17.5q-52 0 -95.5 20.5t-79 41t-69.5 20.5q-31 0 -65.5 -23t-53.5 -46l-18 -23z" />
<glyph unicode="&#xd2;" horiz-adv-x="1515" d="M75 483q-9 118 13 254q61 346 273.5 542t551.5 196q105 0 192.5 -24t150 -66t109.5 -100.5t74 -127t39.5 -146t10.5 -156t-16 -159.5q-20 -115 -59.5 -218.5t-108.5 -200t-159.5 -166t-218.5 -111t-280 -41.5q-124 0 -227 37.5t-174 106.5t-116.5 165.5t-54.5 214.5z M520 1987l488 -21l100 -369l-303 21zM549 737q-73 -409 164 -409q62 0 110.5 22.5t78.5 55.5t53 86t34.5 97.5t22.5 106.5q10 58 14 110t-2 109t-23.5 97.5t-56 67t-94.5 26.5q-62 0 -111 -22.5t-79 -56t-53.5 -86.5t-35 -98t-22.5 -106z" />
<glyph unicode="&#xd3;" horiz-adv-x="1515" d="M75 483q-9 118 13 254q61 346 273.5 542t551.5 196q105 0 192.5 -24t150 -66t109.5 -100.5t74 -127t39.5 -146t10.5 -156t-16 -159.5q-20 -115 -59.5 -218.5t-108.5 -200t-159.5 -166t-218.5 -111t-280 -41.5q-124 0 -227 37.5t-174 106.5t-116.5 165.5t-54.5 214.5z M549 737q-73 -409 164 -409q62 0 110.5 22.5t78.5 55.5t53 86t34.5 97.5t22.5 106.5q10 58 14 110t-2 109t-23.5 97.5t-56 67t-94.5 26.5q-62 0 -111 -22.5t-79 -56t-53.5 -86.5t-35 -98t-22.5 -106zM739 1597l232 369l493 21l-413 -369z" />
<glyph unicode="&#xd4;" horiz-adv-x="1515" d="M75 483q-9 118 13 254q61 346 273.5 542t551.5 196q105 0 192.5 -24t150 -66t109.5 -100.5t74 -127t39.5 -146t10.5 -156t-16 -159.5q-20 -115 -59.5 -218.5t-108.5 -200t-159.5 -166t-218.5 -111t-280 -41.5q-124 0 -227 37.5t-174 106.5t-116.5 165.5t-54.5 214.5z M469 1618l383 430h307l240 -379l-324 -92l-110 184h-21l-133 -174zM549 737q-73 -409 164 -409q62 0 110.5 22.5t78.5 55.5t53 86t34.5 97.5t22.5 106.5q10 58 14 110t-2 109t-23.5 97.5t-56 67t-94.5 26.5q-62 0 -111 -22.5t-79 -56t-53.5 -86.5t-35 -98t-22.5 -106z" />
<glyph unicode="&#xd5;" horiz-adv-x="1515" d="M75 483q-9 118 13 254q61 346 273.5 542t551.5 196q105 0 192.5 -24t150 -66t109.5 -100.5t74 -127t39.5 -146t10.5 -156t-16 -159.5q-20 -115 -59.5 -218.5t-108.5 -200t-159.5 -166t-218.5 -111t-280 -41.5q-124 0 -227 37.5t-174 106.5t-116.5 165.5t-54.5 214.5z M549 737q-73 -409 164 -409q62 0 110.5 22.5t78.5 55.5t53 86t34.5 97.5t22.5 106.5q10 58 14 110t-2 109t-23.5 97.5t-56 67t-94.5 26.5q-62 0 -111 -22.5t-79 -56t-53.5 -86.5t-35 -98t-22.5 -106zM555 1792q6 9 16.5 23.5t44.5 51.5t69.5 65.5t88.5 51.5t105 23 q45 0 83.5 -13t59.5 -28t44.5 -28t43.5 -13t42 9.5t38.5 23t30 27t21.5 23.5l7 9l133 -235q-5 -7 -14 -18t-39.5 -39t-62.5 -50t-81 -39.5t-98 -17.5q-52 0 -95 20.5t-78.5 41t-69.5 20.5q-31 0 -65.5 -23t-52.5 -46l-19 -23z" />
<glyph unicode="&#xd6;" horiz-adv-x="1515" d="M75 483q-9 118 13 254q61 346 273.5 542t551.5 196q105 0 192.5 -24t150 -66t109.5 -100.5t74 -127t39.5 -146t10.5 -156t-16 -159.5q-20 -115 -59.5 -218.5t-108.5 -200t-159.5 -166t-218.5 -111t-280 -41.5q-124 0 -227 37.5t-174 106.5t-116.5 165.5t-54.5 214.5z M479 1802q14 79 78.5 142t163.5 63q86 0 135.5 -55.5t34.5 -139.5q-13 -77 -75.5 -135.5t-162.5 -58.5q-90 0 -138 53t-36 131zM549 737q-73 -409 164 -409q62 0 110.5 22.5t78.5 55.5t53 86t34.5 97.5t22.5 106.5q10 58 14 110t-2 109t-23.5 97.5t-56 67t-94.5 26.5 q-62 0 -111 -22.5t-79 -56t-53.5 -86.5t-35 -98t-22.5 -106zM971 1802q14 79 78 142t163 63q86 0 135.5 -55.5t34.5 -139.5q-13 -78 -75 -136t-162 -58q-90 0 -138 53t-36 131z" />
<glyph unicode="&#xd7;" horiz-adv-x="1120" d="M43 424l301 248l-225 237l284 236l218 -238l280 248l211 -203l-305 -258l229 -239l-272 -226l-213 242l-281 -235z" />
<glyph unicode="&#xd8;" horiz-adv-x="1536" d="M-74 221l180 135q-45 172 -8 381q61 345 274 541.5t552 196.5q291 0 444 -181l160 119l147 -215l-194 -145q38 -171 2 -357q-20 -115 -59.5 -218.5t-108.5 -200t-159.5 -166t-218.5 -111t-280 -41.5q-264 0 -415 160l-158 -119zM551 686l450 336q-41 84 -141 84 q-62 0 -111 -22.5t-79 -56t-53.5 -86.5t-35 -98t-22.5 -106zM590 383q46 -55 133 -55q62 0 110.5 22.5t78.5 55.5t53 86t34.5 97.5t22.5 106.5l4 13z" />
<glyph unicode="&#xd9;" horiz-adv-x="1507" d="M113 532l159 902h451l-145 -820q-20 -116 16.5 -196t130.5 -80q218 0 252 321q39 344 65 734l459 41q-25 -380 -80 -748q-29 -183 -102 -324.5t-176.5 -228t-226 -130.5t-259.5 -44q-91 0 -177.5 22t-162 68.5t-128 112.5t-74.5 161.5t-2 208.5zM528 1966l488 -20 l100 -369l-303 20z" />
<glyph unicode="&#xda;" horiz-adv-x="1507" d="M113 532l159 902h451l-145 -820q-20 -116 16.5 -196t130.5 -80q218 0 252 321q39 344 65 734l459 41q-25 -380 -80 -748q-29 -183 -102 -324.5t-176.5 -228t-226 -130.5t-259.5 -44q-91 0 -177.5 22t-162 68.5t-128 112.5t-74.5 161.5t-2 208.5zM731 1597l232 369l493 21 l-414 -369z" />
<glyph unicode="&#xdb;" horiz-adv-x="1507" d="M113 532l159 902h451l-145 -820q-20 -116 16.5 -196t130.5 -80q218 0 252 321q39 344 65 734l459 41q-25 -380 -80 -748q-29 -183 -102 -324.5t-176.5 -228t-226 -130.5t-259.5 -44q-91 0 -177.5 22t-162 68.5t-128 112.5t-74.5 161.5t-2 208.5zM430 1638l383 430h307 l240 -378l-324 -93l-110 185h-21l-133 -174z" />
<glyph unicode="&#xdc;" horiz-adv-x="1507" d="M113 532l159 902h451l-145 -820q-20 -116 16.5 -196t130.5 -80q218 0 252 321q39 344 65 734l459 41q-25 -380 -80 -748q-29 -183 -102 -324.5t-176.5 -228t-226 -130.5t-259.5 -44q-91 0 -177.5 22t-162 68.5t-128 112.5t-74.5 161.5t-2 208.5zM496 1782q14 79 78 142 t163 63q86 0 135.5 -55.5t34.5 -139.5q-14 -78 -75.5 -136.5t-161.5 -58.5q-90 0 -138 53.5t-36 131.5zM987 1782q14 79 78.5 142t163.5 63q86 0 135.5 -55.5t34.5 -139.5q-13 -78 -75.5 -136.5t-162.5 -58.5q-90 0 -138 53.5t-36 131.5z" />
<glyph unicode="&#xdd;" horiz-adv-x="1341" d="M129 1434h512l111 -471h20l365 553l374 -195l-624 -819l-88 -502h-451l88 502zM690 1597l232 369l493 21l-414 -369z" />
<glyph unicode="&#xde;" horiz-adv-x="1474" d="M4 -82l31 164l252 1423l461 51l-48 -245h164q158 0 287.5 -47.5t211.5 -129t118 -192.5t14 -235q-51 -287 -270.5 -456t-575.5 -169h-164l-26 -143zM543 410h164q122 0 207 77.5t108 208.5q23 123 -42.5 205t-172.5 82h-164z" />
<glyph unicode="&#xdf;" horiz-adv-x="1392" d="M20 0l193 1085q25 103 87.5 181t146.5 122t175.5 65.5t188.5 21.5q107 0 191.5 -21.5t136.5 -57t83.5 -81.5t40 -93.5t-0.5 -95.5q-11 -65 -55.5 -140t-49.5 -105q-7 -41 3 -76.5t30.5 -60t47 -51t52.5 -51t46 -59t28 -74.5t-2 -99q-18 -105 -88 -188t-177 -137t-227 -87 t-258 -49l-20 313q9 2 39 7.5t43 8.5t41 9.5t43 12t37.5 14t35.5 18t27.5 21.5t22 26t10.5 31q7 42 -10 75.5t-46 58t-57.5 51t-44.5 68t-6 95.5q12 68 61 142t60 134q6 39 -18.5 65.5t-69.5 26.5q-39 0 -72 -34t-45 -109l-190 -1024z" />
<glyph unicode="&#xe0;" d="M7 397.5q1 49.5 7 94.5q19 109 67.5 207.5t121 176t173.5 123t216 45.5q50 0 98.5 -15t71.5 -31l24 -15h21l24 82l404 -41l-174 -1044l-363 -21l-6 82h-20q-11 -9 -30 -22.5t-76.5 -36.5t-112.5 -23q-77 0 -142.5 19t-112 51t-84.5 75t-59 92t-35 100.5t-13 101z M365 1581l487 -20l100 -369l-303 20zM438 512q-16 -91 9 -148t98 -57q41 0 82 15.5t61 31.5l21 15l41 286q-5 5 -15.5 11.5t-46 18t-76.5 11.5q-70 0 -116 -56.5t-58 -127.5z" />
<glyph unicode="&#xe1;" d="M7 397.5q1 49.5 7 94.5q19 109 67.5 207.5t121 176t173.5 123t216 45.5q50 0 98.5 -15t71.5 -31l24 -15h21l24 82l404 -41l-174 -1044l-363 -21l-6 82h-20q-11 -9 -30 -22.5t-76.5 -36.5t-112.5 -23q-77 0 -142.5 19t-112 51t-84.5 75t-59 92t-35 100.5t-13 101zM438 512 q-16 -91 9 -148t98 -57q41 0 82 15.5t61 31.5l21 15l41 286q-5 5 -15.5 11.5t-46 18t-76.5 11.5q-70 0 -116 -56.5t-58 -127.5zM553 1188l231 368l494 21l-414 -369z" />
<glyph unicode="&#xe2;" d="M7 397.5q1 49.5 7 94.5q19 109 67.5 207.5t121 176t173.5 123t216 45.5q50 0 98.5 -15t71.5 -31l24 -15h21l24 82l404 -41l-174 -1044l-363 -21l-6 82h-20q-11 -9 -30 -22.5t-76.5 -36.5t-112.5 -23q-77 0 -142.5 19t-112 51t-84.5 75t-59 92t-35 100.5t-13 101z M262 1208l383 430h307l240 -378l-324 -93l-110 185h-21l-133 -174zM438 512q-16 -91 9 -148t98 -57q41 0 82 15.5t61 31.5l21 15l41 286q-5 5 -15.5 11.5t-46 18t-76.5 11.5q-70 0 -116 -56.5t-58 -127.5z" />
<glyph unicode="&#xe3;" d="M7 397.5q1 49.5 7 94.5q19 109 67.5 207.5t121 176t173.5 123t216 45.5q50 0 98.5 -15t71.5 -31l24 -15h21l24 82l404 -41l-174 -1044l-363 -21l-6 82h-20q-11 -9 -30 -22.5t-76.5 -36.5t-112.5 -23q-77 0 -142.5 19t-112 51t-84.5 75t-59 92t-35 100.5t-13 101z M367 1362q6 9 16.5 23.5t44 51.5t69.5 65.5t88.5 51.5t104.5 23q45 0 83.5 -13t60 -28t45 -28t43.5 -13t42 9.5t38.5 23t30 27t21.5 23.5l7 9l133 -235q-5 -7 -14 -18t-39.5 -39t-62.5 -50t-81 -39.5t-98 -17.5q-52 0 -95.5 20.5t-79 41t-69.5 20.5q-31 0 -65.5 -23 t-53.5 -46l-18 -23zM438 512q-16 -91 9 -148t98 -57q41 0 82 15.5t61 31.5l21 15l41 286q-5 5 -15.5 11.5t-46 18t-76.5 11.5q-70 0 -116 -56.5t-58 -127.5z" />
<glyph unicode="&#xe4;" d="M7 397.5q1 49.5 7 94.5q19 109 67.5 207.5t121 176t173.5 123t216 45.5q50 0 98.5 -15t71.5 -31l24 -15h21l24 82l404 -41l-174 -1044l-363 -21l-6 82h-20q-11 -9 -30 -22.5t-76.5 -36.5t-112.5 -23q-77 0 -142.5 19t-112 51t-84.5 75t-59 92t-35 100.5t-13 101z M322 1372q14 79 78 142t163 63q86 0 135.5 -55.5t34.5 -139.5q-13 -78 -75 -136t-162 -58q-90 0 -138 53t-36 131zM438 512q-16 -91 9 -148t98 -57q41 0 82 15.5t61 31.5l21 15l41 286q-5 5 -15.5 11.5t-46 18t-76.5 11.5q-70 0 -116 -56.5t-58 -127.5zM813 1372 q14 79 78.5 142t163.5 63q86 0 135.5 -55.5t34.5 -139.5q-13 -77 -75.5 -135.5t-162.5 -58.5q-90 0 -138 53t-36 131z" />
<glyph unicode="&#xe5;" d="M7 397.5q1 49.5 7 94.5q19 109 67.5 207.5t121 176t173.5 123t216 45.5q50 0 98.5 -15t71.5 -31l24 -15h21l24 82l404 -41l-174 -1044l-363 -21l-6 82h-20q-11 -9 -30 -22.5t-76.5 -36.5t-112.5 -23q-77 0 -142.5 19t-112 51t-84.5 75t-59 92t-35 100.5t-13 101zM438 512 q-16 -91 9 -148t98 -57q41 0 82 15.5t61 31.5l21 15l41 286q-5 5 -15.5 11.5t-46 18t-76.5 11.5q-70 0 -116 -56.5t-58 -127.5zM471 1475q24 133 127.5 220t253.5 87q146 0 222 -91.5t52 -215.5q-21 -119 -126 -203t-252 -84t-224 77.5t-53 209.5zM717 1475 q-7 -42 11.5 -67.5t53.5 -25.5q36 0 64 26t35 67q6 40 -13.5 66t-52.5 26q-35 0 -63.5 -27.5t-34.5 -64.5z" />
<glyph unicode="&#xe6;" horiz-adv-x="1748" d="M-31 297q12 71 56 129.5t104 96t129.5 65.5t136.5 42.5t122 23t89 10.5l33 2q6 38 -18 60t-70 22q-64 0 -147.5 -23t-135.5 -47l-51 -23l-61 287q10 5 28 13.5t73 29.5t109.5 37t129.5 29.5t141 13.5q56 0 101.5 -14t78.5 -40.5t54.5 -51t43.5 -58.5h21q73 73 179 118.5 t226 45.5q118 0 206 -28t135.5 -75t65.5 -104.5t7 -120.5q-17 -96 -69.5 -172t-127 -122.5t-162.5 -70.5t-182 -24q-36 0 -76 5t-62 11l-21 5l-4 -21q8 -7 23 -17t60.5 -27t90.5 -17q71 0 145.5 15.5t113.5 30.5l38 15l100 -266q-9 -5 -24.5 -13.5t-64.5 -29.5t-100 -37 t-124 -29.5t-142 -13.5q-257 0 -368 164h-21q-114 -82 -230 -123t-269 -41q-163 0 -250 93t-60 245zM385 328q-5 -26 17 -44t73 -18q32 0 64.5 8t48.5 16l16 7l21 113q-2 -1 -23.5 0.5t-56.5 -3t-68.5 -11t-60.5 -24.5t-31 -44zM1096 612q250 3 264 95q6 31 -12 51t-56 20 q-136 0 -196 -166z" />
<glyph unicode="&#xe7;" horiz-adv-x="1013" d="M18 522q30 165 127 289.5t238 189t305 64.5q57 0 118.5 -12.5t107.5 -31t84.5 -36.5t58.5 -31l20 -12l-239 -307q-6 7 -17.5 17t-51.5 27t-85 17q-95 0 -157.5 -47t-77.5 -137q-14 -78 33.5 -131t138.5 -53q45 0 99.5 18t85.5 36l32 17l110 -297q-9 -6 -24 -15.5 t-63.5 -34t-97 -43.5t-117.5 -34.5t-132 -15.5h-20l-9 -51q6 -1 16 -3t38 -10.5t53 -20t54.5 -33.5t48.5 -48t28.5 -65.5t1.5 -85.5q-18 -95 -120.5 -165.5t-250.5 -70.5q-62 0 -125 18t-95 36l-32 18l99 153q2 -3 8 -8t33 -13.5t65 -8.5q93 0 103 51q4 26 -13 45 t-44.5 27.5t-55.5 13.5t-48 6h-20l45 250q-328 108 -256 528z" />
<glyph unicode="&#xe8;" horiz-adv-x="1136" d="M18 323q-19 92 2 209q27 151 129.5 273.5t255 191t324.5 68.5q118 0 206 -28t135.5 -75t65.5 -104.5t7 -120.5q-17 -96 -69.5 -172t-127 -122.5t-162.5 -70.5t-182 -24q-36 0 -76 5t-62 11l-22 5l-4 -21q8 -7 23 -17t60.5 -27t90.5 -17q71 0 145.5 15.5t112.5 30.5l39 15 l101 -266q-9 -5 -24.5 -13.5t-64.5 -29.5t-100 -37t-124 -29.5t-142 -13.5q-100 0 -188 22t-161.5 67.5t-121 114t-66.5 160.5zM354 1577l488 -21l100 -368l-303 20zM483 612q251 3 265 95q6 31 -12 51t-56 20q-137 0 -197 -166z" />
<glyph unicode="&#xe9;" horiz-adv-x="1136" d="M18 323q-19 92 2 209q27 151 129.5 273.5t255 191t324.5 68.5q118 0 206 -28t135.5 -75t65.5 -104.5t7 -120.5q-17 -96 -69.5 -172t-127 -122.5t-162.5 -70.5t-182 -24q-36 0 -76 5t-62 11l-22 5l-4 -21q8 -7 23 -17t60.5 -27t90.5 -17q71 0 145.5 15.5t112.5 30.5l39 15 l101 -266q-9 -5 -24.5 -13.5t-64.5 -29.5t-100 -37t-124 -29.5t-142 -13.5q-100 0 -188 22t-161.5 67.5t-121 114t-66.5 160.5zM483 612q251 3 265 95q6 31 -12 51t-56 20q-137 0 -197 -166zM494 1208l231 369l494 20l-414 -368z" />
<glyph unicode="&#xea;" horiz-adv-x="1136" d="M18 323q-19 92 2 209q27 151 129.5 273.5t255 191t324.5 68.5q118 0 206 -28t135.5 -75t65.5 -104.5t7 -120.5q-17 -96 -69.5 -172t-127 -122.5t-162.5 -70.5t-182 -24q-36 0 -76 5t-62 11l-22 5l-4 -21q8 -7 23 -17t60.5 -27t90.5 -17q71 0 145.5 15.5t112.5 30.5l39 15 l101 -266q-9 -5 -24.5 -13.5t-64.5 -29.5t-100 -37t-124 -29.5t-142 -13.5q-100 0 -188 22t-161.5 67.5t-121 114t-66.5 160.5zM209 1208l383 430h307l240 -378l-324 -93l-110 185h-21l-133 -174zM483 612q251 3 265 95q6 31 -12 51t-56 20q-137 0 -197 -166z" />
<glyph unicode="&#xeb;" horiz-adv-x="1136" d="M18 323q-19 92 2 209q27 151 129.5 273.5t255 191t324.5 68.5q118 0 206 -28t135.5 -75t65.5 -104.5t7 -120.5q-17 -96 -69.5 -172t-127 -122.5t-162.5 -70.5t-182 -24q-36 0 -76 5t-62 11l-22 5l-4 -21q8 -7 23 -17t60.5 -27t90.5 -17q71 0 145.5 15.5t112.5 30.5l39 15 l101 -266q-9 -5 -24.5 -13.5t-64.5 -29.5t-100 -37t-124 -29.5t-142 -13.5q-100 0 -188 22t-161.5 67.5t-121 114t-66.5 160.5zM285 1372q14 79 78 142t163 63q86 0 135.5 -55.5t34.5 -139.5q-13 -78 -75 -136t-162 -58q-90 0 -138 53t-36 131zM483 612q251 3 265 95 q6 31 -12 51t-56 20q-137 0 -197 -166zM776 1372q14 79 78.5 142t163.5 63q86 0 135.5 -55.5t34.5 -139.5q-13 -77 -75.5 -135.5t-162.5 -58.5q-90 0 -138 53t-36 131z" />
<glyph unicode="&#xec;" horiz-adv-x="706" d="M41 0l176 1004h410l-135 -1004h-451zM63 1577l488 -21l100 -368l-303 20z" />
<glyph unicode="&#xed;" horiz-adv-x="696" d="M31 0l176 1004h409l-135 -1004h-450zM311 1208l232 369l493 20l-413 -368z" />
<glyph unicode="&#xee;" horiz-adv-x="696" d="M-8 1167l383 430h307l240 -378l-324 -93l-111 185h-20l-133 -174zM31 0l176 1004h409l-135 -1004h-450z" />
<glyph unicode="&#xef;" horiz-adv-x="696" d="M16 1372q14 79 78.5 142t163.5 63q86 0 135.5 -55.5t34.5 -139.5q-13 -77 -75.5 -135.5t-162.5 -58.5q-90 0 -138 53t-36 131zM31 0l176 1004h409l-135 -1004h-450zM508 1372q14 79 78.5 142t163.5 63q86 0 135.5 -55.5t34.5 -139.5q-13 -77 -75.5 -135.5t-162.5 -58.5 q-90 0 -138 53t-36 131z" />
<glyph unicode="&#xf0;" horiz-adv-x="1105" d="M-31 410q18 103 71.5 189.5t127 142.5t159 87t169.5 31q118 0 206 -61l5 18q-32 89 -152 209l-152 -137l-145 164l131 112l-92 64l227 246l119 -91l107 95l149 -142l-100 -90q344 -336 282 -684q-47 -271 -232 -437.5t-427 -166.5q-152 0 -264.5 60.5t-161.5 163.5 t-27 227zM381 420q-10 -56 21.5 -94.5t86.5 -38.5q56 0 102 36.5t56 96.5q10 66 -19.5 104.5t-88.5 38.5t-103.5 -39t-54.5 -104z" />
<glyph unicode="&#xf1;" horiz-adv-x="1280" d="M27 -20l153 1044l361 20l16 -81h21q15 9 41.5 22.5t98 36t130.5 22.5q85 0 148 -17t110.5 -55.5t70 -100t27.5 -151t-18 -208.5l-90 -512q-26 -1 -68.5 -1.5t-133 -2t-150.5 -2.5t-60 0l92 518q6 43 4 81.5t-21.5 65.5t-53.5 27q-27 0 -65 -10t-62 -20l-25 -11l-102 -645 zM365 1382q6 9 16.5 23.5t44 51.5t69.5 65.5t88.5 51.5t104.5 23q57 0 102 -20.5t76 -40.5t54 -20q20 0 42 9.5t38.5 23t30 27t21.5 22.5l7 10l133 -236q-5 -7 -14 -18t-39.5 -39t-62.5 -50t-81 -39.5t-98 -17.5q-52 0 -95.5 20.5t-79 41t-69.5 20.5q-31 0 -65.5 -23 t-53.5 -46l-18 -23z" />
<glyph unicode="&#xf2;" horiz-adv-x="1208" d="M20 532q44 245 225 389t443 144q77 0 145 -18t118.5 -49.5t92.5 -74.5t67 -94t41.5 -107.5t16.5 -114t-8 -115.5q-18 -102 -70.5 -196t-134 -170t-201.5 -121.5t-261 -45.5q-114 0 -211.5 44t-162.5 119t-93 182.5t-7 227.5zM315 1577l488 -21l100 -368l-303 20z M423.5 458q-0.5 -36 8 -78t39 -67.5t80.5 -25.5q83 0 135.5 65t65.5 140q8 64 5 118.5t-35.5 90.5t-90.5 36q-41 0 -74.5 -16t-54.5 -38.5t-37 -52.5t-23.5 -53t-11.5 -45q-6 -38 -6.5 -74z" />
<glyph unicode="&#xf3;" horiz-adv-x="1208" d="M20 532q44 245 225 389t443 144q77 0 145 -18t118.5 -49.5t92.5 -74.5t67 -94t41.5 -107.5t16.5 -114t-8 -115.5q-18 -102 -70.5 -196t-134 -170t-201.5 -121.5t-261 -45.5q-114 0 -211.5 44t-162.5 119t-93 182.5t-7 227.5zM423.5 458q-0.5 -36 8 -78t39 -67.5 t80.5 -25.5q83 0 135.5 65t65.5 140q8 64 5 118.5t-35.5 90.5t-90.5 36q-41 0 -74.5 -16t-54.5 -38.5t-37 -52.5t-23.5 -53t-11.5 -45q-6 -38 -6.5 -74zM541 1208l231 369l494 20l-414 -368z" />
<glyph unicode="&#xf4;" horiz-adv-x="1208" d="M20 532q44 245 225 389t443 144q77 0 145 -18t118.5 -49.5t92.5 -74.5t67 -94t41.5 -107.5t16.5 -114t-8 -115.5q-18 -102 -70.5 -196t-134 -170t-201.5 -121.5t-261 -45.5q-114 0 -211.5 44t-162.5 119t-93 182.5t-7 227.5zM242 1208l383 430h307l239 -378l-323 -93 l-111 185h-20l-133 -174zM423.5 458q-0.5 -36 8 -78t39 -67.5t80.5 -25.5q83 0 135.5 65t65.5 140q8 64 5 118.5t-35.5 90.5t-90.5 36q-41 0 -74.5 -16t-54.5 -38.5t-37 -52.5t-23.5 -53t-11.5 -45q-6 -38 -6.5 -74z" />
<glyph unicode="&#xf5;" horiz-adv-x="1208" d="M20 532q44 245 225 389t443 144q77 0 145 -18t118.5 -49.5t92.5 -74.5t67 -94t41.5 -107.5t16.5 -114t-8 -115.5q-18 -102 -70.5 -196t-134 -170t-201.5 -121.5t-261 -45.5q-114 0 -211.5 44t-162.5 119t-93 182.5t-7 227.5zM328 1382q6 9 16.5 23.5t44 51.5t69.5 65.5 t88.5 51.5t104.5 23q57 0 102 -20.5t76 -40.5t54 -20q32 0 66.5 23t53.5 46l19 23l133 -236q-5 -7 -14 -18t-39.5 -39t-62.5 -50t-81 -39.5t-98 -17.5q-52 0 -95.5 20.5t-79 41t-69.5 20.5q-31 0 -65.5 -23t-52.5 -46l-19 -23zM423.5 458q-0.5 -36 8 -78t39 -67.5 t80.5 -25.5q83 0 135.5 65t65.5 140q8 64 5 118.5t-35.5 90.5t-90.5 36q-41 0 -74.5 -16t-54.5 -38.5t-37 -52.5t-23.5 -53t-11.5 -45q-6 -38 -6.5 -74z" />
<glyph unicode="&#xf6;" horiz-adv-x="1208" d="M20 532q44 245 225 389t443 144q77 0 145 -18t118.5 -49.5t92.5 -74.5t67 -94t41.5 -107.5t16.5 -114t-8 -115.5q-18 -102 -70.5 -196t-134 -170t-201.5 -121.5t-261 -45.5q-114 0 -211.5 44t-162.5 119t-93 182.5t-7 227.5zM287 1372q14 79 78 142t163 63 q86 0 135.5 -55.5t34.5 -139.5q-13 -78 -75 -136t-162 -58q-90 0 -138 53t-36 131zM423.5 458q-0.5 -36 8 -78t39 -67.5t80.5 -25.5q83 0 135.5 65t65.5 140q8 64 5 118.5t-35.5 90.5t-90.5 36q-41 0 -74.5 -16t-54.5 -38.5t-37 -52.5t-23.5 -53t-11.5 -45q-6 -38 -6.5 -74z M778 1372q14 79 78.5 142t163.5 63q86 0 135.5 -55.5t34.5 -139.5q-13 -77 -75.5 -135.5t-162.5 -58.5q-90 0 -138 53t-36 131z" />
<glyph unicode="&#xf7;" horiz-adv-x="1208" d="M80 573l39 338l1079 -30l-53 -308h-1065zM315 287q14 79 95 142t178 63t154.5 -63t43.5 -142t-93.5 -142t-176.5 -63t-156 63t-45 142zM475 1186q12 79 92.5 142t177.5 63t155 -63t46 -142q-14 -79 -94.5 -142t-177.5 -63t-155 63t-44 142z" />
<glyph unicode="&#xf8;" horiz-adv-x="1208" d="M-74 174l115 80q-46 121 -21 278q44 245 225 389t443 144q205 0 338 -123l117 82l112 -174l-116 -82q47 -133 22 -276q-18 -102 -70.5 -196t-134 -170t-201.5 -121.5t-261 -45.5q-202 0 -334 123l-119 -82zM430 524l272 193q-30 20 -71 20t-74.5 -16t-54.5 -38.5 t-37 -52.5t-23.5 -53t-11.5 -45v-8zM479 307q30 -20 72 -20q83 0 135.5 65t65.5 140v6z" />
<glyph unicode="&#xf9;" horiz-adv-x="1300" d="M70.5 303.5q-4.5 89.5 19.5 208.5l90 512q26 1 68.5 1.5t132.5 2t149.5 2.5t59.5 0l-90 -518q-6 -43 -4 -81.5t21.5 -65.5t53.5 -27q27 0 64.5 10t61.5 20l24 11l104 645l422 20l-151 -1044l-363 -20l-16 81h-21q-15 -9 -41.5 -22.5t-98 -36t-130.5 -22.5q-85 0 -148 17 t-110.5 55.5t-70 100t-27 151zM336 1577l487 -21l101 -368l-303 20z" />
<glyph unicode="&#xfa;" d="M39.5 303.5q-4.5 89.5 19.5 208.5l91 512q26 1 68.5 1.5t132 2t149 2.5t59.5 0l-90 -518q-12 -69 5 -121.5t67 -52.5q27 0 64.5 10t60.5 20l24 11l105 645l422 20l-152 -1044l-363 -20l-16 81h-20q-15 -9 -42 -22.5t-98.5 -36t-130.5 -22.5q-85 0 -148 17t-110.5 55.5 t-70 100t-27 151zM506 1208l231 369l494 20l-414 -368z" />
<glyph unicode="&#xfb;" d="M39.5 303.5q-4.5 89.5 19.5 208.5l91 512q26 1 68.5 1.5t132 2t149 2.5t59.5 0l-90 -518q-12 -69 5 -121.5t67 -52.5q27 0 64.5 10t60.5 20l24 11l105 645l422 20l-152 -1044l-363 -20l-16 81h-20q-15 -9 -42 -22.5t-98.5 -36t-130.5 -22.5q-85 0 -148 17t-110.5 55.5 t-70 100t-27 151zM256 1208l383 430h307l240 -378l-324 -93l-110 185h-21l-133 -174z" />
<glyph unicode="&#xfc;" horiz-adv-x="1300" d="M70.5 303.5q-4.5 89.5 19.5 208.5l90 512q26 1 68.5 1.5t132.5 2t149.5 2.5t59.5 0l-90 -518q-6 -43 -4 -81.5t21.5 -65.5t53.5 -27q27 0 64.5 10t61.5 20l24 11l104 645l422 20l-151 -1044l-363 -20l-16 81h-21q-15 -9 -41.5 -22.5t-98 -36t-130.5 -22.5q-85 0 -148 17 t-110.5 55.5t-70 100t-27 151zM297 1372q14 79 78.5 142t163.5 63q86 0 135.5 -55.5t34.5 -139.5q-13 -77 -75.5 -135.5t-162.5 -58.5q-90 0 -138 53t-36 131zM788 1372q14 79 78.5 142t163.5 63q86 0 135.5 -55.5t34.5 -139.5q-13 -78 -75 -136t-162 -58q-91 0 -139 53 t-36 131z" />
<glyph unicode="&#xfd;" horiz-adv-x="1218" d="M-29 -328l179 308q14 -9 38.5 -22.5t86 -36.5t106.5 -23q204 0 235 174h-20q-8 -6 -24 -14.5t-71.5 -23t-119.5 -14.5q-408 0 -309 564l88 440l411 20l-86 -491q-14 -86 8 -130t64 -44q32 0 62.5 10.5t44.5 20.5l14 10l117 604l432 20l-168 -962q-22 -127 -84.5 -227.5 t-153.5 -164.5t-202.5 -97t-235.5 -33q-77 0 -148 11.5t-117 28t-81 33t-51 27.5zM557 1208l231 369l494 20l-414 -368z" />
<glyph unicode="&#xfe;" horiz-adv-x="1290" d="M-57 -430l336 1843l383 21l-76 -433h20q10 7 29 17.5t75 28.5t111 18q77 0 142.5 -20t111.5 -54t83.5 -79t58 -96t34 -104.5t12.5 -104t-6 -95.5q-19 -109 -68 -207.5t-121 -176t-173.5 -123.5t-216.5 -46q-50 0 -111 15t-97 30l-36 16h-20l-76 -430zM473 369 q2 -3 6.5 -7t21 -14.5t36 -19t52 -15t68.5 -6.5q70 0 117.5 57t59.5 128q8 59 4 109t-32 83t-77 33q-51 0 -103.5 -20.5t-79.5 -40.5l-26 -21z" />
<glyph unicode="&#xff;" horiz-adv-x="1280" d="M2 -328l178 308q15 -9 39 -22.5t86 -36.5t107 -23q204 0 235 174h-20q-8 -6 -24 -14.5t-71.5 -23t-119.5 -14.5q-409 0 -310 564l88 440l412 20l-86 -491q-14 -86 8 -130t64 -44q32 0 62 10.5t44 20.5l15 10l116 604l432 20l-167 -962q-22 -127 -84.5 -227.5 t-153.5 -164.5t-202.5 -97t-235.5 -33q-77 0 -148 11.5t-117 28t-81 33t-50 27.5zM342 1393q14 78 78.5 141t163.5 63q86 0 135.5 -55t34.5 -139q-13 -78 -75.5 -136.5t-162.5 -58.5q-90 0 -138 53.5t-36 131.5zM834 1393q14 79 78 141.5t163 62.5q86 0 135.5 -55t34.5 -139 q-14 -78 -75.5 -136.5t-161.5 -58.5q-90 0 -138 53.5t-36 131.5z" />
<glyph unicode="&#x152;" horiz-adv-x="2017" d="M66 725q26 145 98 272.5t182 225.5t265.5 154.5t334.5 56.5h1139l-96 -369h-553l-29 -164h491l-43 -358h-512l-30 -174l600 -21l-80 -348h-1139q-157 0 -286 50.5t-215.5 142t-121 229.5t-5.5 303zM520 696q-29 -169 48.5 -248t293.5 -79l123 696q-213 0 -322.5 -91 t-142.5 -278z" />
<glyph unicode="&#x153;" horiz-adv-x="1820" d="M19 304q-23 105 1 228q44 246 224 389.5t442 143.5q93 0 174 -52t121 -130h18q122 101 218 140.5t264 39.5q185 0 277 -97.5t69 -228.5q-17 -96 -69.5 -172t-127 -122.5t-162.5 -70.5t-182 -24q-36 0 -76 5t-62 11l-22 5l-4 -21q8 -7 23 -17t60.5 -27t90.5 -17 q71 0 145.5 15.5t112.5 30.5l39 15l101 -266q-9 -5 -24.5 -13.5t-64.5 -29.5t-100 -37t-124 -29.5t-142 -13.5q-274 0 -371 164h-20q-56 -65 -150.5 -114.5t-205.5 -49.5q-133 0 -234.5 43.5t-158.5 120t-80 181.5zM423.5 458q-0.5 -36 8 -78t39 -67.5t80.5 -25.5 q83 0 135.5 65t65.5 140q8 64 5 118.5t-35.5 90.5t-90.5 36q-41 0 -74.5 -16t-54.5 -38.5t-37 -52.5t-23.5 -53t-11.5 -45q-6 -38 -6.5 -74zM1167 612q251 3 265 95q6 31 -12 51t-56 20q-137 0 -197 -166z" />
<glyph unicode="&#x178;" horiz-adv-x="1341" d="M129 1434h512l111 -471h20l365 553l374 -195l-624 -819l-88 -502h-451l88 502zM463 1804q14 79 78.5 142t163.5 63q86 0 135 -55t34 -139q-14 -78 -75.5 -136.5t-161.5 -58.5q-90 0 -138 53t-36 131zM954 1804q14 79 78.5 142t163.5 63q86 0 135.5 -55t34.5 -139 q-13 -78 -75.5 -136.5t-162.5 -58.5q-90 0 -138 53t-36 131z" />
<glyph unicode="&#x2c6;" horiz-adv-x="1044" d="M168 1188l383 430h307l240 -379l-324 -92l-110 184h-21l-133 -174z" />
<glyph unicode="&#x2dc;" horiz-adv-x="952" d="M199 1362q6 9 16.5 23.5t44 51.5t69.5 65.5t88.5 51.5t104.5 23q45 0 83.5 -13t60 -28t45 -28t43.5 -13t42 9.5t38.5 23t30 27t21.5 23.5l7 9l133 -235q-5 -7 -14 -18t-39.5 -39t-62.5 -50t-81 -39.5t-98 -17.5q-52 0 -95.5 20.5t-79 41t-69.5 20.5q-31 0 -65.5 -23 t-53.5 -46l-18 -23z" />
<glyph unicode="&#x2000;" horiz-adv-x="1085" />
<glyph unicode="&#x2001;" horiz-adv-x="2171" />
<glyph unicode="&#x2002;" horiz-adv-x="1085" />
<glyph unicode="&#x2003;" horiz-adv-x="2171" />
<glyph unicode="&#x2004;" horiz-adv-x="723" />
<glyph unicode="&#x2005;" horiz-adv-x="542" />
<glyph unicode="&#x2006;" horiz-adv-x="361" />
<glyph unicode="&#x2007;" horiz-adv-x="361" />
<glyph unicode="&#x2008;" horiz-adv-x="271" />
<glyph unicode="&#x2009;" horiz-adv-x="434" />
<glyph unicode="&#x200a;" horiz-adv-x="120" />
<glyph unicode="&#x2010;" horiz-adv-x="1003" d="M66 492l65 368l858 -10l-88 -379z" />
<glyph unicode="&#x2011;" horiz-adv-x="1003" d="M66 492l65 368l858 -10l-88 -379z" />
<glyph unicode="&#x2012;" horiz-adv-x="1003" d="M66 492l65 368l858 -10l-88 -379z" />
<glyph unicode="&#x2013;" horiz-adv-x="1351" d="M41 471l61 348h1209l-47 -379z" />
<glyph unicode="&#x2014;" horiz-adv-x="1853" d="M41 471l61 348h1710l-47 -379z" />
<glyph unicode="&#x2018;" horiz-adv-x="593" d="M141 1044q26 146 132.5 253.5t248.5 156.5l74 -156q-71 -24 -113 -68q-42 -45 2 -61q3 -1 7 -2q61 -16 92 -63t18 -121q-14 -79 -93.5 -142t-176.5 -63q-102 0 -157 73t-34 193z" />
<glyph unicode="&#x2019;" horiz-adv-x="593" d="M178 1249q14 79 95 142t178 63q102 0 155.5 -72.5t32.5 -193.5q-26 -146 -132.5 -253.5t-246.5 -156.5l-76 156q71 24 113 68q43 45 -1 61q-3 1 -7 2q-62 16 -93 63.5t-18 120.5z" />
<glyph unicode="&#x201a;" horiz-adv-x="593" d="M-10 184q14 79 94.5 142t177.5 63q102 0 156 -72.5t33 -193.5q-26 -146 -132.5 -253.5t-246.5 -156.5l-76 156q72 24 115 68.5t-2 60.5q-3 1 -7 2q-62 16 -93 63t-19 121z" />
<glyph unicode="&#x201c;" horiz-adv-x="1126" d="M141 1044q26 146 132.5 253.5t248.5 156.5l74 -156q-71 -24 -113 -68q-42 -45 2 -61q3 -1 7 -2q61 -16 92 -63t18 -121q-14 -79 -93.5 -142t-176.5 -63q-102 0 -157 73t-34 193zM674 1044q26 146 132.5 253.5t248.5 156.5l73 -156q-71 -24 -113 -68q-42 -45 2 -61 q3 -1 7 -2q62 -16 93 -63.5t18 -120.5q-14 -79 -94 -142t-177 -63q-102 0 -156.5 73t-33.5 193z" />
<glyph unicode="&#x201d;" horiz-adv-x="1126" d="M178 1249q14 79 95 142t178 63q102 0 155.5 -72.5t32.5 -193.5q-26 -146 -132.5 -253.5t-246.5 -156.5l-76 156q71 24 113 68q43 45 -1 61q-3 1 -7 2q-62 16 -93 63.5t-18 120.5zM711 1249q14 79 94.5 142t177.5 63q102 0 155.5 -72.5t32.5 -193.5q-26 -146 -132 -253.5 t-246 -156.5l-76 156q71 24 113 68q42 45 -2 61q-3 1 -7 2q-61 16 -92 63t-18 121z" />
<glyph unicode="&#x201e;" horiz-adv-x="1126" d="M-10 184q14 79 94.5 142t177.5 63q102 0 156 -72.5t33 -193.5q-26 -146 -132.5 -253.5t-246.5 -156.5l-76 156q72 24 115 68.5t-2 60.5q-3 1 -7 2q-62 16 -93 63t-19 121zM522 184q14 79 95 142t178 63q102 0 155.5 -72.5t32.5 -193.5q-26 -146 -132.5 -253.5 t-246.5 -156.5l-76 156q72 24 115 68q44 45 -1 61q-3 1 -7 2q-62 16 -93.5 63t-19.5 121z" />
<glyph unicode="&#x2022;" horiz-adv-x="860" d="M147 727q21 120 124 208.5t237 88.5q137 0 207 -83t47 -214q-24 -135 -125 -216t-234 -81t-206.5 81.5t-49.5 215.5z" />
<glyph unicode="&#x2026;" horiz-adv-x="1835" d="M-10 184q14 79 94.5 142t177.5 63t155 -63t44 -142q-12 -78 -92.5 -141t-178.5 -63q-97 0 -154.5 62.5t-45.5 141.5zM610 184q14 79 95 142t178 63t154.5 -63t43.5 -142q-12 -79 -92.5 -141.5t-177.5 -62.5t-155 62.5t-46 141.5zM1231 184q14 79 94.5 142t177.5 63 t155 -63t44 -142q-12 -79 -92.5 -141.5t-177.5 -62.5t-155 62.5t-46 141.5z" />
<glyph unicode="&#x202f;" horiz-adv-x="434" />
<glyph unicode="&#x2039;" horiz-adv-x="860" d="M29 512l604 532l227 -225l-360 -307l-4 -20l249 -328l-327 -225z" />
<glyph unicode="&#x203a;" horiz-adv-x="860" d="M-33 164l365 328l4 20l-254 307l305 225l420 -532l-594 -573z" />
<glyph unicode="&#x205f;" horiz-adv-x="542" />
<glyph unicode="&#x20ac;" horiz-adv-x="1392" d="M2 481l37 215h123l12 62h-113l31 235h154q110 238 315 360t496 122q74 0 148 -20t125.5 -48.5t92.5 -57.5t61 -49l21 -20l-245 -287q-5 5 -14 12.5t-38.5 27t-59 34.5t-72.5 27t-83 12q-52 0 -100 -10.5t-80 -25.5t-56.5 -30t-36.5 -26l-11 -10l-4 -21l448 -10l-37 -215 h-491l-13 -62h482l-21 -235l-459 10l-4 -20q1 -5 3.5 -12.5t18 -27t37.5 -34.5t67 -27t102 -12q91 0 188.5 31t149.5 61l51 31l131 -307q-11 -8 -32 -21t-84.5 -46.5t-127.5 -59.5t-153.5 -47t-169.5 -21q-142 0 -252 28.5t-194 90t-132 162.5t-57 241h-154z" />
<glyph unicode="&#x2122;" horiz-adv-x="2027" d="M100 1157l80 277l776 -11l-51 -286l-233 10l-80 -451l-328 -10l101 461zM825 737l289 707l324 -21l37 -317h20l186 307h318l26 -717h-358l21 287h-21l-137 -205l-207 -10l-55 215h-21l-104 -307z" />
</font>
</defs>
</svg>
